<svg width="263" height="1020" viewBox="0 0 263 1020" fill="none" xmlns="http://www.w3.org/2000/svg">
<path d="M32.2105 1018.13L29.4823 979.37C29.1402 974.509 32.9913 970.377 37.8643 970.377H224.301C229.174 970.377 233.025 974.509 232.683 979.37L229.955 1018.13M229.955 1018.13H32.2105C14.627 1016.63 1.12036 1001.92 1.12036 984.268V35.8519C1.12036 16.6703 16.6701 1.12061 35.8517 1.12061H226.314C245.495 1.12061 261.045 16.6703 261.045 35.8519V984.268C261.045 1001.92 247.539 1016.63 229.955 1018.13Z" stroke="#505055" stroke-width="2.24073"/>
<path d="M32.4906 8.12354H228.555M32.4906 8.12354C24.7881 8.12354 8.26267 16.9464 6.72217 33.8919V985.082C6.72217 997.406 22.9675 1010.43 31.3702 1010.43M32.4906 8.12354V118.48M228.555 8.12354C236.257 8.12354 253.343 16.9464 254.883 33.8919V985.082C254.883 997.406 238.638 1010.43 230.235 1010.43M228.555 8.12354V118.76M228.555 972.198V229.396M32.4906 972.058V229.396" stroke="#505055" stroke-width="1.68055"/>
<rect x="12.8843" y="118.479" width="236.117" height="110.916" rx="7.00228" stroke="#505055" stroke-width="1.68055"/>
<rect x="32.4907" y="125.121" width="196.064" height="98.3121" stroke="#505055" stroke-width="1.68055"/>
<path d="M85.1412 166.646L88.0941 178.699L91.2134 166.646H94.7693L90.7351 181.596H85.7027L83.1865 171.034L80.6702 181.596H75.617L71.5828 166.646H75.1387L78.2996 178.699L81.2733 166.646H85.1412Z" fill="#505055"/>
<path d="M100.71 175.192V178.762H107.946V181.596H97.341V166.646H107.739V169.481H100.71V172.672H106.907V175.192H100.71Z" fill="#505055"/>
<path d="M120.5 181.596H110.81V166.646H114.303V178.573H120.5V181.596Z" fill="#505055"/>
<path d="M130.034 179.097C131.906 179.097 133.59 177.796 134.048 176.011L137.313 176.452C136.814 179.748 133.736 182.121 129.951 182.121C125.376 182.121 122.049 178.762 122.049 174.121C122.049 169.481 125.376 166.121 129.951 166.121C133.694 166.121 136.772 168.557 137.313 171.937L134.027 172.315C133.611 170.468 131.948 169.145 130.034 169.145C127.393 169.145 125.543 171.202 125.543 174.121C125.543 177.04 127.414 179.097 130.034 179.097Z" fill="#505055"/>
<path d="M147.712 182.121C142.846 182.121 139.519 178.867 139.519 174.121C139.519 169.397 142.846 166.121 147.712 166.121C152.557 166.121 155.905 169.397 155.905 174.121C155.905 178.867 152.557 182.121 147.712 182.121ZM147.712 169.145C144.946 169.145 143.012 171.202 143.012 174.121C143.012 177.04 144.946 179.076 147.712 179.097C150.478 179.097 152.412 177.04 152.412 174.121C152.412 171.202 150.478 169.145 147.712 169.145Z" fill="#505055"/>
<path d="M162.202 170.908V181.596H158.791V166.646H163.387L167.588 177.628L171.747 166.646H176.405V181.596H172.994V170.908L168.898 181.596H166.278L162.202 170.908Z" fill="#505055"/>
<path d="M183.346 175.192V178.762H190.583V181.596H179.977V166.646H190.375V169.481H183.346V172.672H189.543V175.192H183.346Z" fill="#505055"/>
<path d="M124.016 283.713C128.282 279.447 135.199 279.447 139.465 283.713L195.671 339.919C199.937 344.184 199.937 351.101 195.671 355.367L138.715 412.322C134.449 416.588 127.533 416.588 123.267 412.322L67.061 356.116C62.7951 351.85 62.7951 344.934 67.061 340.668L124.016 283.713Z" stroke="#505055" stroke-width="2.24073"/>
<path d="M94.5305 357.782L83.9553 348.154L94.5305 338.525V357.782Z" fill="#505055" stroke="#505055" stroke-width="0.280091"/>
<path d="M167.915 357.782L178.49 348.154L167.915 338.525V357.782Z" fill="#505055" stroke="#505055" stroke-width="0.280091"/>
<path d="M132.063 309.782V316.083H130.103V309.782H132.063ZM138.645 307.542V309.501H132.343V307.542H138.645ZM132.063 307.542V309.501H130.103V307.542H132.063ZM129.823 307.542V309.501H123.52V307.542H129.823ZM132.063 300.958V307.261H130.103V300.958H132.063Z" fill="#505055" stroke="#505055" stroke-width="0.280091"/>
<path d="M138.645 386.526V388.487H123.52V386.526H138.645Z" fill="#505055" stroke="#505055" stroke-width="0.280091"/>
<path d="M144.527 706.671C144.527 700.947 149.167 696.308 154.891 696.308H191.303C197.026 696.308 201.666 700.947 201.666 706.671V742.523C201.666 748.246 197.026 752.886 191.303 752.886H154.891C149.167 752.886 144.527 748.246 144.527 742.523V706.671Z" stroke="#505055" stroke-width="1.68055"/>
<path d="M156.011 713.89C156.011 711.295 158.114 709.192 160.709 709.192H185.764C188.359 709.192 190.462 711.295 190.462 713.89V729.549C190.462 732.144 188.359 734.247 185.764 734.247L179.411 734.299C179.342 734.299 179.276 734.325 179.226 734.371L173.312 739.698C173.132 739.861 172.845 739.733 172.845 739.49V734.63C172.845 734.476 172.721 734.351 172.567 734.35L160.709 734.247C158.114 734.247 156.011 732.144 156.011 729.549V713.89Z" stroke="#505055" stroke-width="1.68055"/>
<path d="M175.536 718.304V730.396H171.498V718.304H175.536ZM173.516 712.354C174.09 712.356 174.568 712.545 174.955 712.92C175.342 713.295 175.536 713.758 175.536 714.315C175.536 714.873 175.342 715.337 174.957 715.713C174.568 716.085 174.09 716.272 173.516 716.276C172.943 716.28 172.465 716.092 172.078 715.713C171.691 715.334 171.498 714.87 171.498 714.315C171.498 713.761 171.691 713.297 172.078 712.919C172.465 712.541 172.943 712.353 173.516 712.354Z" fill="#505055" stroke="#505055" stroke-width="0.163387"/>
<path d="M60.7795 577.268C60.7795 571.545 65.4194 566.905 71.1429 566.905H107.555C113.278 566.905 117.918 571.545 117.918 577.268V613.12C117.918 618.843 113.278 623.483 107.555 623.483H71.1429C65.4194 623.483 60.7795 618.843 60.7795 613.12V577.268Z" stroke="#505055" stroke-width="1.68055"/>
<path d="M70.3027 608.638C70.3027 607.865 70.9297 607.238 71.7032 607.238H85.7078C86.4812 607.238 87.1082 607.865 87.1082 608.638V612.279C87.1082 613.053 86.4812 613.68 85.7078 613.68H71.7032C70.9297 613.68 70.3027 613.053 70.3027 612.279V608.638Z" stroke="#505055" stroke-width="1.12037"/>
<path d="M89.3489 608.638C89.3489 607.865 89.9759 607.238 90.7493 607.238H97.4715C98.245 607.238 98.872 607.865 98.872 608.638V612.279C98.872 613.053 98.245 613.68 97.4715 613.68H90.7493C89.9759 613.68 89.3489 613.053 89.3489 612.279V608.638Z" stroke="#505055" stroke-width="1.12037"/>
<path d="M102.233 610.459C102.233 608.68 103.675 607.238 105.454 607.238C107.233 607.238 108.675 608.68 108.675 610.459C108.675 612.238 107.233 613.68 105.454 613.68C103.675 613.68 102.233 612.238 102.233 610.459Z" stroke="#505055" stroke-width="1.12037"/>
<path d="M91.1696 586.266C92.1966 585.939 94.3906 584.466 94.3906 580.769C94.484 579.322 93.8583 576.288 90.0491 576.288C86.2399 576.288 85.5676 580.209 86.9682 581.329C89.7692 583.85 90.0491 583.716 90.0491 585.957M89.349 589.087C88.322 589.414 86.3034 590.936 86.3034 594.634C86.2101 596.081 86.8357 599.115 90.6449 599.115C94.4542 599.115 95.1264 595.194 93.7259 594.073C90.9248 591.553 90.8895 591.4 90.8895 589.159M88.9366 586.511C88.6098 585.484 87.1643 583.438 83.4671 583.438C82.0199 583.345 78.9856 583.971 78.9856 587.78C78.9856 591.589 82.9069 592.261 84.0272 590.861C86.5481 588.06 86.2912 587.911 88.5319 587.911M91.645 588.472C91.9717 589.499 93.4943 591.526 97.1915 591.526C98.6387 591.619 101.673 590.993 101.673 587.184C101.673 583.375 97.7517 582.703 96.6314 584.103C94.1105 586.904 94.0149 587.071 91.7742 587.071M90.1893 589.312C89.2611 589.312 88.5087 588.559 88.5087 587.631C88.5087 586.703 89.2611 585.951 90.1893 585.951C91.1174 585.951 91.8698 586.703 91.8698 587.631C91.8698 588.559 91.1174 589.312 90.1893 589.312Z" stroke="#505055" stroke-width="1.12037"/>
<path d="M144.527 577.268C144.527 571.545 149.167 566.905 154.891 566.905H191.303C197.026 566.905 201.666 571.545 201.666 577.268V613.12C201.666 618.843 197.026 623.483 191.303 623.483H154.891C149.167 623.483 144.527 618.843 144.527 613.12V577.268Z" stroke="#505055" stroke-width="1.68055"/>
<path d="M156.291 608.218C156.291 605.666 158.36 603.597 160.913 603.597C163.465 603.597 165.534 605.666 165.534 608.218C165.534 610.771 163.465 612.84 160.913 612.84C158.36 612.84 156.291 610.771 156.291 608.218Z" stroke="#505055" stroke-width="1.12037"/>
<path d="M168.615 608.218C168.615 605.666 170.684 603.597 173.236 603.597C175.789 603.597 177.858 605.666 177.858 608.218C177.858 610.771 175.789 612.84 173.236 612.84C170.684 612.84 168.615 610.771 168.615 608.218Z" stroke="#505055" stroke-width="1.12037"/>
<path d="M180.939 608.218C180.939 605.666 183.008 603.597 185.561 603.597C188.113 603.597 190.182 605.666 190.182 608.218C190.182 610.771 188.113 612.84 185.561 612.84C183.008 612.84 180.939 610.771 180.939 608.218Z" stroke="#505055" stroke-width="1.12037"/>
<mask id="path-23-inside-1_216_664" fill="white">
<path d="M169.397 597.481C168.503 596.58 168.055 595.489 168.055 594.207C168.055 592.925 168.502 591.833 169.396 590.931C170.29 590.03 171.374 589.58 172.646 589.58C173.233 589.58 173.789 589.685 174.315 589.895C174.843 590.105 175.306 590.422 175.706 590.843V576.288L183.74 580.349V584.265L177.237 581.049V594.207C177.237 595.489 176.789 596.58 175.895 597.482C175 598.384 173.917 598.835 172.646 598.835C171.374 598.835 170.29 598.384 169.396 597.482"/>
</mask>
<path d="M169.397 597.481C168.503 596.58 168.055 595.489 168.055 594.207C168.055 592.925 168.502 591.833 169.396 590.931C170.29 590.03 171.374 589.58 172.646 589.58C173.233 589.58 173.789 589.685 174.315 589.895C174.843 590.105 175.306 590.422 175.706 590.843V576.288L183.74 580.349V584.265L177.237 581.049V594.207C177.237 595.489 176.789 596.58 175.895 597.482C175 598.384 173.917 598.835 172.646 598.835C171.374 598.835 170.29 598.384 169.396 597.482" fill="#505055"/>
<path d="M169.396 590.931L169.28 590.816L169.28 590.816L169.396 590.931ZM174.315 589.895L174.376 589.743L174.376 589.743L174.315 589.895ZM175.706 590.843L175.588 590.956L175.87 591.253V590.843H175.706ZM175.706 576.288L175.78 576.142L175.543 576.022V576.288H175.706ZM183.74 580.349H183.904V580.248L183.814 580.203L183.74 580.349ZM183.74 584.265L183.668 584.412L183.904 584.528V584.265H183.74ZM177.237 581.049L177.309 580.903L177.073 580.786V581.049H177.237ZM172.646 598.835V598.672V598.835ZM169.397 597.481L169.513 597.365C168.649 596.496 168.219 595.446 168.219 594.207H168.055H167.892C167.892 595.531 168.356 596.664 169.281 597.596L169.397 597.481ZM168.055 594.207H168.219C168.219 592.968 168.649 591.917 169.512 591.046L169.396 590.931L169.28 590.816C168.355 591.749 167.892 592.882 167.892 594.207H168.055ZM169.396 590.931L169.512 591.046C170.376 590.176 171.417 589.743 172.646 589.743V589.58V589.416C171.33 589.416 170.205 589.884 169.28 590.816L169.396 590.931ZM172.646 589.58V589.743C173.213 589.743 173.748 589.844 174.255 590.046L174.315 589.895L174.376 589.743C173.83 589.525 173.252 589.416 172.646 589.416V589.58ZM174.315 589.895L174.255 590.046C174.76 590.248 175.204 590.551 175.588 590.956L175.706 590.843L175.825 590.731C175.409 590.292 174.926 589.963 174.376 589.743L174.315 589.895ZM175.706 590.843H175.87V576.288H175.706H175.543V590.843H175.706ZM175.706 576.288L175.633 576.433L183.667 580.495L183.74 580.349L183.814 580.203L175.78 576.142L175.706 576.288ZM183.74 580.349H183.577V584.265H183.74H183.904V580.349H183.74ZM183.74 584.265L183.813 584.119L177.309 580.903L177.237 581.049L177.164 581.196L183.668 584.412L183.74 584.265ZM177.237 581.049H177.073V594.207H177.237H177.4V581.049H177.237ZM177.237 594.207H177.073C177.073 595.446 176.643 596.496 175.779 597.367L175.895 597.482L176.011 597.597C176.936 596.664 177.4 595.531 177.4 594.207H177.237ZM175.895 597.482L175.779 597.367C174.915 598.238 173.874 598.672 172.646 598.672V598.835V598.998C173.961 598.998 175.085 598.53 176.011 597.597L175.895 597.482ZM172.646 598.835V598.672C171.417 598.672 170.376 598.238 169.512 597.367L169.396 597.482L169.28 597.597C170.205 598.53 171.33 598.998 172.646 598.998V598.835Z" fill="#505055" mask="url(#path-23-inside-1_216_664)"/>
<path d="M144.527 641.97C144.527 636.247 149.167 631.607 154.891 631.607H191.303C197.026 631.607 201.666 636.247 201.666 641.97V677.822C201.666 683.546 197.026 688.185 191.303 688.185H154.891C149.167 688.185 144.527 683.546 144.527 677.822V641.97Z" stroke="#505055" stroke-width="1.68055"/>
<path d="M167.148 665.97L174.054 670.921C174.239 671.054 174.497 670.921 174.497 670.693V651.198C174.497 650.97 174.239 650.837 174.054 650.97L167.148 655.921C167.101 655.956 167.043 655.974 166.985 655.974H161.753C161.599 655.974 161.473 656.099 161.473 656.254V665.637C161.473 665.792 161.599 665.917 161.753 665.917H166.985C167.043 665.917 167.101 665.935 167.148 665.97Z" stroke="#505055" stroke-width="1.12037"/>
<path d="M177.859 658.215L177.859 664.377" stroke="#505055" stroke-width="1.12037" stroke-linecap="round"/>
<path d="M181.22 655.974L181.22 666.617" stroke="#505055" stroke-width="1.12037" stroke-linecap="round"/>
<path d="M184.581 652.893L184.581 669.418" stroke="#505055" stroke-width="1.12037" stroke-linecap="round"/>
<path d="M173.527 640.148V643.5H176.878V644.36H173.527V647.711H172.667V644.36H169.315V643.5H172.667V640.148H173.527Z" fill="#505055" stroke="#505055" stroke-width="0.280091"/>
<path d="M176.878 680.481V681.322H169.315V680.481H176.878Z" fill="#505055" stroke="#505055" stroke-width="0.280091"/>
<path d="M60.7795 641.97C60.7795 636.247 65.4194 631.607 71.1429 631.607H107.555C113.278 631.607 117.918 636.247 117.918 641.97V677.822C117.918 683.546 113.278 688.185 107.555 688.185H71.1429C65.4194 688.185 60.7795 683.546 60.7795 677.822V641.97Z" stroke="#505055" stroke-width="1.68055"/>
<path d="M96.0708 648.132C96.0708 650.513 94.3903 651.633 93.41 651.633C92.4297 651.633 91.0291 650.373 91.1692 648.412C91.3092 646.451 93.0754 644.491 94.3902 644.491C95.7051 644.491 96.0707 645.751 96.0708 648.132Z" stroke="#505055" stroke-width="1.12037"/>
<ellipse cx="98.4518" cy="648.972" rx="0.98032" ry="1.40046" stroke="#505055" stroke-width="1.12037"/>
<circle cx="101.253" cy="648.552" r="0.98032" stroke="#505055" stroke-width="1.12037"/>
<ellipse cx="104.474" cy="648.552" rx="0.840274" ry="1.26041" stroke="#505055" stroke-width="1.12037"/>
<ellipse cx="106.711" cy="650.93" rx="0.840274" ry="0.840933" transform="rotate(24.9924 106.711 650.93)" stroke="#505055" stroke-width="1.12037"/>
<path d="M103.634 659.616C103.914 657.375 107.135 653.874 105.314 652.473C102.874 650.596 97.0518 652.333 94.9511 653.594C94.2508 654.014 91.0298 656.395 94.9511 659.336C98.0881 661.688 96.9116 663.537 96.2115 665.778C95.5113 668.019 92.0099 671.8 94.2507 674.461C96.4915 677.122 100.226 674.087 101.393 671.94C103.186 669.587 103.354 661.856 103.634 659.616Z" stroke="#505055" stroke-width="1.12037" stroke-linecap="round"/>
<path d="M82.8999 648.132C82.8999 650.513 84.5804 651.633 85.5607 651.633C86.541 651.633 87.9416 650.373 87.8015 648.412C87.6615 646.451 85.8953 644.491 84.5805 644.491C83.2656 644.491 82.9 645.751 82.8999 648.132Z" stroke="#505055" stroke-width="1.12037"/>
<ellipse cx="0.98032" cy="1.40046" rx="0.98032" ry="1.40046" transform="matrix(-1 0 0 1 81.4995 647.572)" stroke="#505055" stroke-width="1.12037"/>
<circle cx="0.98032" cy="0.98032" r="0.98032" transform="matrix(-1 0 0 1 78.6985 647.572)" stroke="#505055" stroke-width="1.12037"/>
<ellipse cx="0.840274" cy="1.26041" rx="0.840274" ry="1.26041" transform="matrix(-1 0 0 1 75.3374 647.292)" stroke="#505055" stroke-width="1.12037"/>
<ellipse cx="0.840274" cy="0.840933" rx="0.840274" ry="0.840933" transform="matrix(-0.906364 0.422498 0.422498 0.906364 72.6663 649.813)" stroke="#505055" stroke-width="1.12037"/>
<path d="M75.3371 659.616C75.057 657.375 71.8359 653.874 73.6565 652.473C76.097 650.596 81.9192 652.333 84.0199 653.594C84.7201 654.014 87.9411 656.395 84.0199 659.336C80.8828 661.688 82.0593 663.537 82.7595 665.778C83.4597 668.019 86.9611 671.8 84.7202 674.461C82.4794 677.122 78.7449 674.087 77.5778 671.94C75.7852 669.587 75.6172 661.856 75.3371 659.616Z" stroke="#505055" stroke-width="1.12037" stroke-linecap="round"/>
<path d="M102.275 642.53C98.7437 639.559 94.1854 637.769 89.2089 637.769C84.2324 637.769 79.674 639.559 76.1426 642.53" stroke="#505055" stroke-width="1.12037" stroke-linecap="round"/>
<path d="M76.1425 677.542C79.674 680.514 84.2324 682.304 89.2088 682.304C94.1853 682.304 98.7437 680.514 102.275 677.542" stroke="#505055" stroke-width="1.12037" stroke-linecap="round"/>
<path d="M81.9265 641.634C84.1871 640.766 86.6424 640.29 89.2088 640.29C91.7753 640.29 94.2306 640.766 96.4911 641.634" stroke="#505055" stroke-width="1.12037" stroke-linecap="round"/>
<path d="M96.4912 678.438C94.2306 679.307 91.7754 679.783 89.2089 679.783C86.6424 679.783 84.1871 679.307 81.9266 678.438" stroke="#505055" stroke-width="1.12037" stroke-linecap="round"/>
<path d="M60.7795 706.671C60.7795 700.948 65.4194 696.308 71.1429 696.308H107.555C113.278 696.308 117.918 700.948 117.918 706.671V742.523C117.918 748.247 113.278 752.887 107.555 752.887H71.1429C65.4194 752.887 60.7795 748.247 60.7795 742.523V706.671Z" stroke="#505055" stroke-width="1.68055"/>
<path d="M88.716 742.803V729.073L80.3971 737.383L77.8652 734.854L87.9926 724.737L77.8652 714.62L80.3971 712.091L88.716 720.401V706.671H90.5245L100.833 716.969L93.0563 724.737L100.833 732.506L90.5245 742.803H88.716ZM92.3329 720.401L95.769 716.969L92.3329 713.627V720.401ZM92.3329 735.848L95.769 732.506L92.3329 729.073V735.848Z" stroke="#505055" stroke-width="1.12037" stroke-linecap="round"/>
<path d="M109.235 728.928L104.135 724.737L109.235 720.547V728.928Z" fill="#505055" stroke="#505055" stroke-width="0.280091"/>
<path d="M69.3228 720.547L74.4233 724.738L69.3228 728.928L69.3228 720.547Z" fill="#505055" stroke="#505055" stroke-width="0.280091"/>
<path d="M102.233 489.181C102.233 473.093 115.275 459.911 131.363 459.911C147.45 459.911 160.492 473.093 160.492 489.181C160.492 505.268 147.45 518.45 131.363 518.45C115.275 518.45 102.233 505.268 102.233 489.181Z" stroke="#505055" stroke-width="1.68055"/>
<path d="M121.7 474.985C117.217 478.099 114.277 483.311 114.277 489.181C114.277 498.648 121.927 506.406 131.363 506.406C140.799 506.406 148.448 498.648 148.448 489.181C148.448 483.311 145.509 478.099 141.026 474.985" stroke="#505055" stroke-width="2.24073" stroke-linecap="round"/>
<path d="M131.363 468.313V486.659" stroke="#505055" stroke-width="2.24073" stroke-linecap="round"/>
</svg>
