<svg preserveAspectRatio="none" width="100%" height="100%" overflow="visible" style="display: block;" viewBox="0 0 58.8192 58.259" fill="none" xmlns="http://www.w3.org/2000/svg">
<g id="Icon">
<path id="Rectangle 12" d="M0.840274 11.2037C0.840274 5.48012 5.48012 0.840274 11.2037 0.840274H47.6155C53.3391 0.840274 57.9789 5.48012 57.9789 11.2037V47.0554C57.9789 52.7789 53.3391 57.4187 47.6155 57.4187H11.2037C5.48012 57.4187 0.840274 52.7789 0.840274 47.0554V11.2037Z" stroke="var(--stroke-0, #505055)" stroke-width="1.68055"/>
<g id="Group 25">
<path id="Rectangle 20" d="M12.3237 18.4223C12.3237 15.8277 14.427 13.7244 17.0216 13.7244H42.077C44.6716 13.7244 46.7749 15.8277 46.7749 18.4223V34.0819C46.7749 36.6765 44.6716 38.7798 42.077 38.7798L35.7237 38.8314C35.6552 38.8319 35.5893 38.8576 35.5385 38.9034L29.6254 44.2309C29.4452 44.3933 29.1578 44.2654 29.1578 44.0228V39.1624C29.1578 39.0086 29.0339 38.8836 28.8801 38.8823L17.0216 38.7798C14.427 38.7798 12.3237 36.6765 12.3237 34.0819V18.4223Z" stroke="var(--stroke-0, #505055)" stroke-width="1.68055"/>
<path id="Vector" d="M31.8489 22.8365V34.9293H27.8108V22.8365H31.8489ZM29.8294 16.8873C30.4033 16.8886 30.8807 17.0775 31.2679 17.4527C31.6548 17.8277 31.8489 18.2908 31.8489 18.8482C31.8488 19.4056 31.6554 19.8695 31.2698 20.2457C30.8814 20.6178 30.4034 20.8051 29.8294 20.8092C29.2559 20.8131 28.778 20.6247 28.3909 20.2457C28.0038 19.8666 27.8109 19.4026 27.8108 18.8482C27.8108 18.2937 28.0037 17.8296 28.3909 17.4518C28.778 17.0741 29.2558 16.886 29.8294 16.8873Z" fill="var(--fill-0, #505055)" stroke="var(--stroke-0, #505055)" stroke-width="0.163387"/>
</g>
</g>
</svg>
