<svg width="60" height="60" viewBox="0 0 60 60" fill="none" xmlns="http://www.w3.org/2000/svg">
<rect width="60" height="60" rx="30" fill="white"/>
<path d="M17.0192 22.9296C18.4531 22.9296 19.6154 21.7673 19.6154 20.3335C19.6154 18.8996 18.4531 17.7373 17.0192 17.7373C15.5854 17.7373 14.4231 18.8996 14.4231 20.3335C14.4231 21.7673 15.5854 22.9296 17.0192 22.9296Z" fill="#E9FBFE"/>
<path d="M45.5769 31.2373V40.0642C45.5769 41.4921 44.4087 42.6604 42.9808 42.6604H22.9644C20.9394 42.6604 19.0702 41.4662 18.2394 39.6229L14.4231 31.2373H45.5769Z" fill="#E9FBFE"/>
<path d="M24.7558 28.7454L21.4587 26.5127C19.3039 25.0329 16.552 27.3435 17.6424 29.732L19.5376 33.9637C20.1347 35.3137 21.7443 35.8848 23.0683 35.2358L29.4808 32.0166L24.7558 28.7454Z" fill="#E9FBFE"/>
<path d="M17.0193 23.7085C15.1501 23.7085 13.6443 22.2027 13.6443 20.3335C13.6443 18.4643 15.1501 16.9585 17.0193 16.9585C18.8885 16.9585 20.3943 18.4643 20.3943 20.3335C20.3943 22.2027 18.8885 23.7085 17.0193 23.7085ZM17.0193 18.5162C16.0068 18.5162 15.202 19.321 15.202 20.3335C15.202 21.346 16.0068 22.1508 17.0193 22.1508C18.0318 22.1508 18.8366 21.346 18.8366 20.3335C18.8366 19.321 18.0318 18.5162 17.0193 18.5162Z" fill="#A4D6DE"/>
<path d="M42.9811 43.4395H22.9647C20.6282 43.4395 18.4993 42.0635 17.5388 39.9347L13.7224 31.5491C13.5407 31.1597 13.7224 30.6923 14.1118 30.5106C14.5013 30.3289 14.9686 30.5106 15.1503 30.9L18.9407 39.2856C19.6676 40.8693 21.2253 41.8818 22.9647 41.8818H42.9811C43.9936 41.8818 44.7984 41.077 44.7984 40.0645V32.0164H32.2589C31.5839 32.0164 30.883 32.1722 30.2859 32.4837L23.432 35.9106C22.6013 36.326 21.6666 36.3779 20.784 36.0664C19.9013 35.7548 19.2263 35.1058 18.8368 34.275L16.9416 30.0433C16.3186 28.6414 16.6561 27.0837 17.8503 26.0712C19.0445 25.0847 20.6282 25.0068 21.9263 25.8635L25.2234 28.0962C25.5868 28.3298 25.6647 28.8231 25.4311 29.1866C25.1974 29.55 24.7041 29.6279 24.3407 29.3943L21.0436 27.1616C20.1868 26.5904 19.3561 26.8241 18.8368 27.2654C18.3176 27.6808 17.9282 28.4856 18.3436 29.3943L20.2388 33.626C20.4465 34.0933 20.8099 34.4308 21.2772 34.5866C21.7445 34.7423 22.2638 34.7164 22.7051 34.5087L29.559 31.0818C30.3897 30.6664 31.2984 30.4587 32.233 30.4587H45.5772C46.0186 30.4587 46.3561 30.7962 46.3561 31.2375V40.0645C46.3561 41.9337 44.8503 43.4395 42.9811 43.4395Z" fill="#A4D6DE"/>
<path d="M39.9173 27.4211C39.7096 27.4211 39.5278 27.3432 39.3721 27.1875C39.0605 26.8759 39.0605 26.3827 39.3721 26.0971C40.3586 25.1105 40.3586 23.5009 39.3721 22.5144C37.7884 20.9307 37.7884 18.3346 39.3721 16.7509L39.7355 16.3875C40.0471 16.0759 40.5403 16.0759 40.8259 16.3875C41.1375 16.699 41.1375 17.1923 40.8259 17.4778L40.4625 17.8413C39.4759 18.8278 39.4759 20.4375 40.4625 21.424C42.0461 23.0077 42.0461 25.6038 40.4625 27.1875C40.3326 27.3432 40.125 27.4211 39.9173 27.4211Z" fill="#A4D6DE"/>
<path d="M34.7251 27.4212C34.5174 27.4212 34.3357 27.3433 34.1799 27.1875C33.8684 26.876 33.8684 26.3827 34.1799 26.0972C35.1665 25.1106 35.1665 23.501 34.1799 22.5145C33.8684 22.2029 33.8684 21.7097 34.1799 21.4241C34.4915 21.1125 34.9848 21.1125 35.2703 21.4241C36.854 23.0077 36.854 25.6039 35.2703 27.1875C35.1405 27.3433 34.9328 27.4212 34.7251 27.4212Z" fill="#A4D6DE"/>
</svg>
