<svg preserveAspectRatio="none" width="100%" height="100%" overflow="visible" style="display: block;" viewBox="0 0 58.8192 58.259" fill="none" xmlns="http://www.w3.org/2000/svg">
<g id="Icon">
<path id="Rectangle 11" d="M0.840274 11.2037C0.840274 5.48012 5.48012 0.840274 11.2037 0.840274H47.6155C53.3391 0.840274 57.9789 5.48012 57.9789 11.2037V47.0554C57.9789 52.7789 53.3391 57.4187 47.6155 57.4187H11.2037C5.48012 57.4187 0.840274 52.7789 0.840274 47.0554V11.2037Z" stroke="var(--stroke-0, #505055)" stroke-width="1.68055"/>
<g id="Group 24">
<path id="Vector" d="M28.7768 47.3358V33.6057L20.4579 41.916L17.926 39.3868L28.0534 29.2699L17.926 19.153L20.4579 16.6238L28.7768 24.9341V11.204H30.5853L40.8935 21.5016L33.1171 29.2699L40.8935 37.0382L30.5853 47.3358H28.7768ZM32.3937 24.9341L35.8298 21.5016L32.3937 18.1594V24.9341ZM32.3937 40.3804L35.8298 37.0382L32.3937 33.6057V40.3804Z" stroke="var(--stroke-0, #505055)" stroke-width="1.12037" stroke-linecap="round"/>
<path id="Polygon 3" d="M49.2959 33.4601L44.1953 29.2697L49.2959 25.0793V33.4601Z" fill="var(--fill-0, #505055)" stroke="var(--stroke-0, #505055)" stroke-width="0.280091"/>
<path id="Polygon 4" d="M9.3836 25.0797L14.4842 29.2701L9.3836 33.4606L9.3836 25.0797Z" fill="var(--fill-0, #505055)" stroke="var(--stroke-0, #505055)" stroke-width="0.280091"/>
</g>
</g>
</svg>
