<svg preserveAspectRatio="none" width="100%" height="100%" overflow="visible" style="display: block;" viewBox="0 0 58.8192 58.259" fill="none" xmlns="http://www.w3.org/2000/svg">
<g id="Icon">
<path id="Rectangle 7" d="M0.840274 11.2037C0.840274 5.48012 5.48012 0.840274 11.2037 0.840274H47.6155C53.3391 0.840274 57.9789 5.48012 57.9789 11.2037V47.0554C57.9789 52.7789 53.3391 57.4187 47.6155 57.4187H11.2037C5.48012 57.4187 0.840274 52.7789 0.840274 47.0554V11.2037Z" stroke="var(--stroke-0, #505055)" stroke-width="1.68055"/>
<path id="Rectangle 15" d="M10.3634 42.5741C10.3634 41.8006 10.9904 41.1736 11.7639 41.1736H25.7685C26.5419 41.1736 27.1689 41.8006 27.1689 42.5741V46.2153C27.1689 46.9887 26.5419 47.6157 25.7685 47.6157H11.7639C10.9904 47.6157 10.3634 46.9887 10.3634 46.2153V42.5741Z" stroke="var(--stroke-0, #505055)" stroke-width="1.12037"/>
<path id="Rectangle 16" d="M29.4095 42.5741C29.4095 41.8006 30.0365 41.1736 30.8099 41.1736H37.5321C38.3056 41.1736 38.9326 41.8006 38.9326 42.5741V46.2153C38.9326 46.9887 38.3056 47.6157 37.5321 47.6157H30.8099C30.0365 47.6157 29.4095 46.9887 29.4095 46.2153V42.5741Z" stroke="var(--stroke-0, #505055)" stroke-width="1.12037"/>
<path id="Rectangle 17" d="M42.2937 44.3947C42.2937 42.6158 43.7358 41.1736 45.5148 41.1736C47.2937 41.1736 48.7358 42.6158 48.7358 44.3947C48.7358 46.1736 47.2937 47.6157 45.5148 47.6157C43.7358 47.6157 42.2937 46.1736 42.2937 44.3947Z" stroke="var(--stroke-0, #505055)" stroke-width="1.12037"/>
<path id="Vector" d="M31.2301 20.2018C32.2571 19.875 34.4511 18.4019 34.4511 14.7047C34.5445 13.2575 33.9189 10.2232 30.1096 10.2232C26.3004 10.2232 25.6282 14.1445 27.0287 15.2649C29.8297 17.7857 30.1096 17.6514 30.1096 19.8921M29.4095 23.0226C28.3825 23.3494 26.364 24.872 26.364 28.5692C26.2706 30.0163 26.8962 33.0507 30.7055 33.0507C34.5147 33.0507 35.187 29.1294 33.7864 28.009C30.9854 25.4882 30.95 25.3358 30.95 23.0951M28.9972 20.4466C28.6704 19.4196 27.2248 17.3741 23.5276 17.3741C22.0805 17.2807 19.0461 17.9063 19.0461 21.7156C19.0461 25.5248 22.9674 26.1971 24.0878 24.7965C26.6086 21.9955 26.3517 21.847 28.5925 21.847M31.7055 22.4072C32.0323 23.4342 33.5549 25.4612 37.2521 25.4612C38.6992 25.5546 41.7335 24.9289 41.7335 21.1197C41.7335 17.3105 37.8123 16.6382 36.6919 18.0388C34.1711 20.8398 34.0754 21.0067 31.8347 21.0067M30.2498 23.2475C29.3216 23.2475 28.5692 22.4951 28.5692 21.5669C28.5692 20.6388 29.3216 19.8864 30.2498 19.8864C31.1779 19.8864 31.9303 20.6388 31.9303 21.5669C31.9303 22.4951 31.1779 23.2475 30.2498 23.2475Z" stroke="var(--stroke-0, #505055)" stroke-width="1.12037"/>
</g>
</svg>
