<svg preserveAspectRatio="none" width="100%" height="100%" overflow="visible" style="display: block;" viewBox="0 0 58.8192 58.259" fill="none" xmlns="http://www.w3.org/2000/svg">
<g id="Icon">
<path id="Rectangle 10" d="M0.840274 11.2037C0.840274 5.48012 5.48012 0.840274 11.2037 0.840274H47.6155C53.3391 0.840274 57.9789 5.48012 57.9789 11.2037V47.0554C57.9789 52.7789 53.3391 57.4187 47.6155 57.4187H11.2037C5.48012 57.4187 0.840274 52.7789 0.840274 47.0554V11.2037Z" stroke="var(--stroke-0, #505055)" stroke-width="1.68055"/>
<g id="Group 16">
<g id="Group 17">
<path id="Vector" d="M23.4612 35.2034L30.3671 40.1549C30.5525 40.2877 30.8104 40.1553 30.8104 39.9272V20.4314C30.8104 20.2034 30.5525 20.0709 30.3671 20.2038L23.4612 25.1553C23.4136 25.1894 23.3565 25.2077 23.298 25.2077H18.0663C17.9116 25.2077 17.7862 25.3331 17.7862 25.4878V34.8709C17.7862 35.0256 17.9116 35.151 18.0663 35.151H23.298C23.3565 35.151 23.4136 35.1693 23.4612 35.2034Z" stroke="var(--stroke-0, #505055)" stroke-width="1.12037"/>
<path id="Vector 2" d="M34.1716 27.4487L34.1716 33.6107" stroke="var(--stroke-0, #505055)" stroke-width="1.12037" stroke-linecap="round"/>
<path id="Vector 3" d="M37.5327 25.2074L37.5327 35.8509" stroke="var(--stroke-0, #505055)" stroke-width="1.12037" stroke-linecap="round"/>
<path id="Vector 4" d="M40.8938 22.1265L40.8938 38.6519" stroke="var(--stroke-0, #505055)" stroke-width="1.12037" stroke-linecap="round"/>
</g>
<path id="Vector_2" d="M29.8402 9.38213V12.7337H33.1908V13.594H29.8402V16.9446H28.9799V13.594H25.6283V12.7337H28.9799V9.38213H29.8402Z" fill="var(--fill-0, #505055)" stroke="var(--stroke-0, #505055)" stroke-width="0.280091"/>
<path id="Vector_3" d="M33.1908 49.715V50.5558H25.6283V49.715H33.1908Z" fill="var(--fill-0, #505055)" stroke="var(--stroke-0, #505055)" stroke-width="0.280091"/>
</g>
</g>
</svg>
