<svg preserveAspectRatio="none" width="100%" height="100%" overflow="visible" style="display: block;" viewBox="0 0 58.8192 58.259" fill="none" xmlns="http://www.w3.org/2000/svg">
<g id="Icon">
<path id="Rectangle 8" d="M0.840274 11.2037C0.840274 5.48012 5.48012 0.840274 11.2037 0.840274H47.6155C53.3391 0.840274 57.9789 5.48012 57.9789 11.2037V47.0554C57.9789 52.7789 53.3391 57.4187 47.6155 57.4187H11.2037C5.48012 57.4187 0.840274 52.7789 0.840274 47.0554V11.2037Z" stroke="var(--stroke-0, #505055)" stroke-width="1.68055"/>
<path id="Rectangle 17" d="M12.6042 42.1539C12.6042 39.6015 14.6733 37.5324 17.2257 37.5324C19.778 37.5324 21.8472 39.6015 21.8472 42.1539C21.8472 44.7063 19.778 46.7754 17.2257 46.7754C14.6733 46.7754 12.6042 44.7063 12.6042 42.1539Z" stroke="var(--stroke-0, #505055)" stroke-width="1.12037"/>
<path id="Rectangle 18" d="M24.9281 42.1539C24.9281 39.6015 26.9972 37.5324 29.5496 37.5324C32.102 37.5324 34.1711 39.6015 34.1711 42.1539C34.1711 44.7063 32.102 46.7754 29.5496 46.7754C26.9972 46.7754 24.9281 44.7063 24.9281 42.1539Z" stroke="var(--stroke-0, #505055)" stroke-width="1.12037"/>
<path id="Rectangle 19" d="M37.2523 42.1539C37.2523 39.6015 39.3214 37.5324 41.8738 37.5324C44.4262 37.5324 46.4953 39.6015 46.4953 42.1539C46.4953 44.7063 44.4262 46.7754 41.8738 46.7754C39.3214 46.7754 37.2523 44.7063 37.2523 42.1539Z" stroke="var(--stroke-0, #505055)" stroke-width="1.12037"/>
<g id="Vector">
<mask id="path-5-inside-1_0_118" fill="white">
<path d="M25.7101 31.4163C24.8154 30.5154 24.368 29.4244 24.368 28.143C24.368 26.8607 24.8149 25.7686 25.7085 24.8667C26.6032 23.9659 27.6866 23.5155 28.9588 23.5155C29.5454 23.5155 30.1019 23.6204 30.6283 23.8302C31.1557 24.041 31.6193 24.3572 32.0193 24.7788V10.2232L40.0531 14.2845V18.201L33.5495 14.9848V28.143C33.5495 29.4244 33.1022 30.5159 32.2075 31.4178C31.3128 32.3196 30.2299 32.7706 28.9588 32.7706C27.6866 32.7706 26.6032 32.3196 25.7085 31.4178"/>
</mask>
<path d="M25.7101 31.4163C24.8154 30.5154 24.368 29.4244 24.368 28.143C24.368 26.8607 24.8149 25.7686 25.7085 24.8667C26.6032 23.9659 27.6866 23.5155 28.9588 23.5155C29.5454 23.5155 30.1019 23.6204 30.6283 23.8302C31.1557 24.041 31.6193 24.3572 32.0193 24.7788V10.2232L40.0531 14.2845V18.201L33.5495 14.9848V28.143C33.5495 29.4244 33.1022 30.5159 32.2075 31.4178C31.3128 32.3196 30.2299 32.7706 28.9588 32.7706C27.6866 32.7706 26.6032 32.3196 25.7085 31.4178" fill="var(--fill-0, #505055)"/>
<path d="M25.7085 24.8667L25.5926 24.7516L25.5925 24.7517L25.7085 24.8667ZM30.6283 23.8302L30.6889 23.6785L30.6887 23.6784L30.6283 23.8302ZM32.0193 24.7788L31.9007 24.8913L32.1826 25.1885V24.7788H32.0193ZM32.0193 10.2232L32.093 10.0774L31.8559 9.95755V10.2232H32.0193ZM40.0531 14.2845H40.2165V14.1841L40.1269 14.1387L40.0531 14.2845ZM40.0531 18.201L39.9807 18.3474L40.2165 18.4641V18.201H40.0531ZM33.5495 14.9848L33.6219 14.8383L33.3861 14.7217V14.9848H33.5495ZM28.9588 32.7706V32.6072V32.7706ZM25.7101 31.4163L25.826 31.3011C24.962 30.4312 24.5314 29.3817 24.5314 28.143H24.368H24.2046C24.2046 29.4671 24.6687 30.5996 25.5941 31.5314L25.7101 31.4163ZM24.368 28.143H24.5314C24.5314 26.9033 24.9616 25.8527 25.8246 24.9818L25.7085 24.8667L25.5925 24.7517C24.6681 25.6845 24.2046 26.8181 24.2046 28.143H24.368ZM25.7085 24.8667L25.8244 24.9819C26.6884 24.112 27.73 23.6789 28.9588 23.6789V23.5155V23.3521C27.6432 23.3521 26.518 23.8198 25.5926 24.7516L25.7085 24.8667ZM28.9588 23.5155V23.6789C29.5254 23.6789 30.0613 23.7801 30.5678 23.982L30.6283 23.8302L30.6887 23.6784C30.1424 23.4607 29.5653 23.3521 28.9588 23.3521V23.5155ZM30.6283 23.8302L30.5676 23.9819C31.0726 24.1837 31.5167 24.4864 31.9007 24.8913L32.0193 24.7788L32.1378 24.6664C31.722 24.2281 31.2388 23.8982 30.6889 23.6785L30.6283 23.8302ZM32.0193 24.7788H32.1826V10.2232H32.0193H31.8559V24.7788H32.0193ZM32.0193 10.2232L31.9455 10.369L39.9794 14.4304L40.0531 14.2845L40.1269 14.1387L32.093 10.0774L32.0193 10.2232ZM40.0531 14.2845H39.8898V18.201H40.0531H40.2165V14.2845H40.0531ZM40.0531 18.201L40.1256 18.0545L33.6219 14.8383L33.5495 14.9848L33.4771 15.1312L39.9807 18.3474L40.0531 18.201ZM33.5495 14.9848H33.3861V28.143H33.5495H33.7129V14.9848H33.5495ZM33.5495 28.143H33.3861C33.3861 29.3817 32.9555 30.4318 32.0915 31.3027L32.2075 31.4178L32.3235 31.5329C33.2488 30.6001 33.7129 29.467 33.7129 28.143H33.5495ZM32.2075 31.4178L32.0915 31.3027C31.2275 32.1736 30.1864 32.6072 28.9588 32.6072V32.7706V32.934C30.2734 32.934 31.3981 32.4657 32.3235 31.5329L32.2075 31.4178ZM28.9588 32.7706V32.6072C27.7301 32.6072 26.6885 32.1736 25.8245 31.3027L25.7085 31.4178L25.5925 31.5329C26.5179 32.4657 27.6431 32.934 28.9588 32.934V32.7706Z" fill="var(--stroke-0, #505055)" mask="url(#path-5-inside-1_0_118)"/>
</g>
</g>
</svg>
