<svg preserveAspectRatio="none" width="100%" height="100%" overflow="visible" style="display: block;" viewBox="0 0 58.8192 58.259" fill="none" xmlns="http://www.w3.org/2000/svg">
<g id="Icon">
<path id="Rectangle 9" d="M0.840274 11.2037C0.840274 5.48012 5.48012 0.840274 11.2037 0.840274H47.6155C53.3391 0.840274 57.9789 5.48012 57.9789 11.2037V47.0554C57.9789 52.7789 53.3391 57.4187 47.6155 57.4187H11.2037C5.48012 57.4187 0.840274 52.7789 0.840274 47.0554V11.2037Z" stroke="var(--stroke-0, #505055)" stroke-width="1.68055"/>
<g id="Group 21">
<g id="Group 19">
<path id="Ellipse 195" d="M36.1316 17.3659C36.1316 19.7467 34.4511 20.867 33.4708 20.867C32.4905 20.867 31.0899 19.6066 31.23 17.646C31.37 15.6853 33.1362 13.7247 34.451 13.7247C35.7659 13.7247 36.1315 14.9851 36.1316 17.3659Z" stroke="var(--stroke-0, #505055)" stroke-width="1.12037"/>
<ellipse id="Ellipse 196" cx="38.5126" cy="18.2061" rx="0.98032" ry="1.40046" stroke="var(--stroke-0, #505055)" stroke-width="1.12037"/>
<circle id="Ellipse 197" cx="41.3136" cy="17.7859" r="0.98032" stroke="var(--stroke-0, #505055)" stroke-width="1.12037"/>
<ellipse id="Ellipse 198" cx="44.5346" cy="17.7861" rx="0.840274" ry="1.26041" stroke="var(--stroke-0, #505055)" stroke-width="1.12037"/>
<ellipse id="Ellipse 199" cx="46.7717" cy="20.1641" rx="0.840274" ry="0.840933" transform="rotate(24.9924 46.7717 20.1641)" stroke="var(--stroke-0, #505055)" stroke-width="1.12037"/>
<path id="Vector 5" d="M43.6945 28.8496C43.9746 26.6089 47.1957 23.1077 45.3751 21.7073C42.9346 19.83 37.1124 21.5673 35.0118 22.8276C34.3115 23.2477 31.0905 25.6285 35.0118 28.5694C38.1488 30.9222 36.9723 32.7706 36.2721 35.0115C35.5719 37.2525 32.0705 41.0335 34.3114 43.6946C36.5522 46.3556 40.2868 43.3209 41.4538 41.1735C43.2464 38.8208 43.4144 31.0903 43.6945 28.8496Z" stroke="var(--stroke-0, #505055)" stroke-width="1.12037" stroke-linecap="round"/>
</g>
<g id="Group 20">
<path id="Ellipse 195_2" d="M22.9604 17.3659C22.9603 19.7467 24.6409 20.867 25.6212 20.867C26.6015 20.867 28.002 19.6066 27.862 17.646C27.722 15.6853 25.9558 13.7247 24.6409 13.7247C23.3261 13.7247 22.9604 14.9851 22.9604 17.3659Z" stroke="var(--stroke-0, #505055)" stroke-width="1.12037"/>
<ellipse id="Ellipse 196_2" cx="0.98032" cy="1.40046" rx="0.98032" ry="1.40046" transform="matrix(-1 0 0 1 21.56 16.8056)" stroke="var(--stroke-0, #505055)" stroke-width="1.12037"/>
<circle id="Ellipse 197_2" cx="0.98032" cy="0.98032" r="0.98032" transform="matrix(-1 0 0 1 18.759 16.8056)" stroke="var(--stroke-0, #505055)" stroke-width="1.12037"/>
<ellipse id="Ellipse 198_2" cx="0.840274" cy="1.26041" rx="0.840274" ry="1.26041" transform="matrix(-1 0 0 1 15.3979 16.5257)" stroke="var(--stroke-0, #505055)" stroke-width="1.12037"/>
<ellipse id="Ellipse 199_2" cx="0.840274" cy="0.840933" rx="0.840274" ry="0.840933" transform="matrix(-0.906364 0.422498 0.422498 0.906364 12.7268 19.0469)" stroke="var(--stroke-0, #505055)" stroke-width="1.12037"/>
<path id="Vector 5_2" d="M15.3977 28.8496C15.1176 26.6089 11.8966 23.1077 13.7172 21.7073C16.1577 19.83 21.9798 21.5673 24.0805 22.8276C24.7808 23.2477 28.0018 25.6285 24.0805 28.5694C20.9435 30.9222 22.12 32.7706 22.8202 35.0115C23.5203 37.2525 27.0217 41.0335 24.7809 43.6946C22.5401 46.3556 18.8055 43.3209 17.6385 41.1735C15.8459 38.8208 15.6778 31.0903 15.3977 28.8496Z" stroke="var(--stroke-0, #505055)" stroke-width="1.12037" stroke-linecap="round"/>
</g>
<path id="Ellipse 200" d="M42.3359 11.764C38.8044 8.79252 34.2461 7.0024 29.2696 7.0024C24.2931 7.0024 19.7347 8.79252 16.2033 11.764" stroke="var(--stroke-0, #505055)" stroke-width="1.12037" stroke-linecap="round"/>
<path id="Ellipse 202" d="M16.2032 46.7758C19.7347 49.7472 24.2931 51.5373 29.2696 51.5373C34.246 51.5373 38.8044 49.7472 42.3359 46.7758" stroke="var(--stroke-0, #505055)" stroke-width="1.12037" stroke-linecap="round"/>
<path id="Ellipse 201" d="M21.9871 10.8678C24.2477 9.99911 26.703 9.523 29.2694 9.523C31.8359 9.523 34.2912 9.99911 36.5518 10.8678" stroke="var(--stroke-0, #505055)" stroke-width="1.12037" stroke-linecap="round"/>
<path id="Ellipse 203" d="M36.5517 47.6713C34.2912 48.5401 31.8359 49.0162 29.2694 49.0162C26.703 49.0162 24.2477 48.5401 21.9871 47.6713" stroke="var(--stroke-0, #505055)" stroke-width="1.12037" stroke-linecap="round"/>
</g>
</g>
</svg>
