<svg preserveAspectRatio="none" width="100%" height="100%" overflow="visible" style="display: block;" viewBox="0 0 60 60" fill="none" xmlns="http://www.w3.org/2000/svg">
<g id="CryoLounge 1" clip-path="url(#clip0_0_139)">
<path id="Vector" d="M29.9862 59.9724C46.5471 59.9724 59.9724 46.5471 59.9724 29.9862C59.9724 13.4253 46.5471 0 29.9862 0C13.4253 0 0 13.4253 0 29.9862C0 46.5471 13.4253 59.9724 29.9862 59.9724Z" fill="var(--fill-0, white)"/>
<path id="Vector_2" d="M44.9217 22.3744C45.414 22.4404 45.9827 22.9725 46.3062 23.3376C46.3677 23.4184 46.424 23.4999 46.4788 23.5854C46.5075 23.6255 46.5361 23.6657 46.5658 23.7071C46.8878 24.2232 46.9075 24.9375 46.7866 25.5194C46.6843 25.9431 46.5164 26.3184 46.3057 26.6993C46.2743 26.7589 46.2743 26.7589 46.2423 26.8196C45.9986 27.2788 45.7329 27.7286 45.4293 28.1506C45.3462 28.2676 45.2678 28.3875 45.1893 28.5076C44.9212 28.9118 44.6173 29.2891 44.313 29.6665C44.2567 29.7365 44.2008 29.807 44.1451 29.8776C43.9671 30.1034 43.7817 30.3196 43.5881 30.5322C43.4068 30.7314 43.2307 30.935 43.0567 31.1406C42.9488 31.2667 42.835 31.3841 42.7161 31.5C42.6837 31.5328 42.6511 31.5656 42.6177 31.5993C42.4936 31.7223 42.3663 31.8414 42.2376 31.9595C42.2009 31.9932 42.2009 31.9932 42.1636 32.0275C42.1129 32.0741 42.0624 32.1205 42.0117 32.1671C41.9417 32.2316 41.8718 32.2962 41.8023 32.3611C41.5632 32.5832 41.3193 32.7963 41.065 33.0007C40.9571 33.0887 40.8516 33.1791 40.7467 33.2704C40.4238 33.5501 40.08 33.794 39.7289 34.0366C39.6149 34.1163 39.5031 34.1987 39.3913 34.2814C39.0702 34.516 38.7322 34.7229 38.3905 34.9256C38.2863 34.9882 38.1827 35.0519 38.0793 35.116C37.7152 35.342 37.353 35.5575 36.9639 35.7384C36.9114 35.763 36.8588 35.7876 36.8063 35.8122C36.723 35.8509 36.6397 35.8897 36.5562 35.9283C36.3445 36.0265 36.1362 36.1302 35.929 36.2378C35.7442 36.3253 35.5543 36.3993 35.3637 36.4737C35.3629 36.5009 35.3624 36.5283 35.3618 36.5562C35.3584 36.6811 35.3543 36.8057 35.3501 36.9306C35.3486 36.9948 35.3486 36.9948 35.3471 37.0604C35.3365 37.353 35.315 37.587 35.1142 37.8145C34.6705 38.1531 34.1558 38.3122 33.6255 38.4598C33.5258 38.4879 33.4265 38.5181 33.3285 38.5519C33.1845 38.5983 33.0417 38.6271 32.893 38.6551C32.6955 38.6929 32.5006 38.7348 32.3065 38.7876C32.0353 38.8578 31.7609 38.8968 31.4838 38.935C31.2455 38.9683 31.0135 39.0138 30.7793 39.0688C31.4627 38.9924 32.1414 38.8997 32.8196 38.7863C32.9309 38.7676 33.0423 38.7497 33.1537 38.732C33.3429 38.702 33.5316 38.6696 33.7202 38.6363C33.7709 38.6275 33.7709 38.6275 33.8225 38.6188C34.4644 38.507 35.0525 38.3409 35.5267 37.8678C35.6093 37.7178 35.6273 37.5607 35.6529 37.3927C35.6584 37.3584 35.664 37.3241 35.6698 37.2889C35.6836 37.2047 35.6966 37.1202 35.7097 37.036C37.0112 37.1175 38.6463 37.465 39.5778 38.4443C39.8763 38.91 39.9497 39.7727 39.8383 40.3043C39.755 40.5518 39.6365 40.6684 39.4138 40.7937C39.1744 40.9112 38.9217 40.974 38.664 41.0393C38.6128 41.0525 38.5614 41.0655 38.5084 41.0791C38.0907 41.1831 37.6746 41.2532 37.2473 41.3035C37.1195 41.3199 36.9924 41.34 36.8652 41.3603C36.5799 41.4048 36.294 41.4365 36.0069 41.4663C35.6676 41.5027 35.3299 41.5422 34.9932 41.5988C34.2471 41.7229 33.4942 41.7978 32.7397 41.8481C32.4635 41.8671 32.1904 41.8975 31.9159 41.9333C31.574 41.9769 31.2309 42.0024 30.8873 42.0285C30.7459 42.0395 30.6045 42.0507 30.463 42.0619C30.4278 42.0647 30.3924 42.0674 30.3561 42.0702C30.1288 42.0885 29.9018 42.1092 29.6748 42.1317C29.6456 42.1347 29.6165 42.1375 29.5865 42.1405C29.5576 42.1435 29.5289 42.1463 29.4991 42.1493C28.947 42.2044 28.3981 42.243 27.8434 42.2566C27.7971 42.2577 27.7509 42.2588 27.7032 42.2599C27.6434 42.2611 27.6434 42.2611 27.5823 42.2624C27.4768 42.2678 27.3749 42.2773 27.2702 42.2897C27.0315 42.3175 26.7928 42.3274 26.5528 42.3361C26.504 42.338 26.4553 42.3399 26.405 42.3417C25.8242 42.3617 25.2432 42.3643 24.662 42.3637C24.5773 42.3637 24.5773 42.3637 24.4906 42.3637C23.2601 42.3628 22.0435 42.3197 20.8226 42.1554C20.7102 42.1405 20.5979 42.1273 20.4853 42.1144C19.6817 42.0143 18.8266 41.7579 18.2098 41.215C18.1857 41.1941 18.1616 41.1732 18.1367 41.1518C17.9847 41.0195 17.8396 40.8824 17.6996 40.7374C17.6285 40.666 17.5541 40.6016 17.4773 40.5365C17.1122 40.2212 16.7652 39.8719 16.4538 39.5035C16.3715 39.4081 16.286 39.3158 16.2002 39.2236C16.0261 39.0363 15.8595 38.8485 15.71 38.6407C15.6231 38.5247 15.53 38.4145 15.4365 38.3037C15.1242 37.9321 14.8312 37.5475 14.5498 37.1521C14.5317 37.1268 14.5135 37.1012 14.4948 37.075C14.4189 36.9682 14.3434 36.8614 14.2687 36.7539C14.1039 36.5227 13.9308 36.4006 13.6794 36.2655C13.2329 36.0097 13.0161 35.6648 12.8739 35.1762C12.863 35.064 12.8558 34.9563 12.8533 34.8442C12.8525 34.8127 12.8516 34.7814 12.8508 34.7489C12.8487 34.6481 12.8476 34.5473 12.8469 34.4463C12.8466 34.4122 12.8463 34.3781 12.846 34.3429C12.8446 33.8143 12.8843 33.4029 13.2199 32.9706C13.2464 32.9342 13.2729 32.8979 13.3002 32.8604C13.4143 32.7298 13.5397 32.6273 13.6767 32.5219C13.7168 32.4907 13.7168 32.4907 13.7576 32.4591C14.0618 32.2258 14.3771 32.0154 14.7237 31.8503C14.8995 31.7637 15.0702 31.6671 15.242 31.5729C15.3594 31.5119 15.4772 31.4584 15.5991 31.4074C15.7817 31.3286 15.96 31.2402 16.1393 31.154C16.3897 31.0336 16.64 30.9157 16.8961 30.8079C16.9989 30.763 17.1016 30.7179 17.2043 30.6729C17.4792 30.5521 17.7552 30.4338 18.0314 30.316C18.3377 30.1854 18.6419 30.0511 18.9451 29.9134C19.2488 29.7755 19.5544 29.6463 19.8648 29.5245C19.9968 29.4725 20.1279 29.4192 20.2588 29.3646C20.3005 29.3473 20.3422 29.3298 20.3851 29.3119C20.4948 29.2655 20.6042 29.2187 20.7136 29.1714C21.071 29.0175 21.4291 28.873 21.7968 28.7456C21.8331 28.7329 21.8693 28.7202 21.9065 28.707C22.0662 28.6517 22.2253 28.5986 22.3882 28.5537C22.7432 28.4482 22.936 28.2969 23.1702 28.0146C23.313 27.8434 23.474 27.6937 23.6376 27.5428C23.665 27.5173 23.6922 27.4919 23.7203 27.4658C23.8632 27.3339 24.0082 27.2078 24.1621 27.0885C24.1476 26.8148 24.0032 26.6204 23.8593 26.3966C23.7179 26.1745 23.5863 25.95 23.4613 25.7182C23.3652 25.541 23.2677 25.3645 23.1701 25.1883C23.1514 25.1549 23.133 25.1216 23.114 25.0871C22.98 24.8461 22.8417 24.6082 22.6994 24.3719C22.6483 24.2775 22.6483 24.2775 22.6483 24.1908C22.696 24.1845 22.696 24.1845 22.7448 24.178C23.0761 24.1289 23.0761 24.1289 23.3404 23.9314C23.3545 23.9029 23.3689 23.8742 23.3836 23.845C23.5133 23.8882 23.5133 23.8882 23.5863 24.0287C23.6007 24.0596 23.6152 24.0907 23.6299 24.1226C23.7227 24.3065 23.8357 24.478 23.9458 24.6518C24.0242 24.783 24.0928 24.9147 24.1599 25.0517C24.2394 25.2108 24.3266 25.3655 24.4135 25.5209C24.4416 25.5714 24.4416 25.5714 24.4703 25.6228C24.6235 25.8973 24.7804 26.1693 24.9404 26.4399C25.1242 26.3739 25.2838 26.28 25.4488 26.1777C26.8951 25.2961 26.8951 25.2961 27.4491 25.2289C27.4491 25.129 27.4491 25.0291 27.4491 24.9261C27.5346 24.8832 27.6203 24.8406 27.7084 24.7964C27.7228 24.3682 27.737 23.94 27.7517 23.4989C27.9516 23.4989 28.1514 23.4989 28.3573 23.4989C28.3573 23.8699 28.3573 24.2411 28.3573 24.6233C28.4143 24.6376 28.4713 24.652 28.5302 24.6667C28.5445 24.7094 28.5587 24.7522 28.5734 24.7964C28.603 24.7834 28.6325 24.7705 28.663 24.7571C28.8034 24.7047 28.9401 24.6745 29.0871 24.6449C29.2399 24.6142 29.3894 24.5817 29.5392 24.5383C31.486 23.9914 33.9628 24.0716 35.8927 24.666C36.0732 24.7146 36.2566 24.7573 36.4448 24.7532C36.5465 24.6814 36.5465 24.6814 36.5985 24.6121C36.6844 24.5089 36.7828 24.4235 36.8827 24.3341C36.9194 24.3009 36.9561 24.2678 36.9939 24.2337C37.0936 24.1476 37.0936 24.1476 37.2233 24.0611C37.2101 24.5029 37.153 24.7578 36.8325 25.0789C36.7902 25.1186 36.7478 25.1583 36.7053 25.1978C36.6617 25.2406 36.6179 25.2835 36.5745 25.3267C36.4604 25.4387 36.3449 25.549 36.2288 25.6589C36.1118 25.7706 35.9963 25.884 35.8807 25.9971C35.5511 26.3189 35.2215 26.6406 34.8716 26.9406C34.7735 27.0265 34.6835 27.1191 34.5932 27.213C34.3729 27.4349 34.1398 27.6319 33.8931 27.8238C33.8676 27.8437 33.842 27.8637 33.8158 27.8843C33.1869 28.3737 32.5362 28.7788 31.8171 29.1212C31.7814 29.1401 31.7454 29.1587 31.7085 29.1781C30.9682 29.5504 30.0289 29.3983 29.2642 29.1777C28.5749 28.9804 27.8618 28.8907 27.1535 28.789C27.0701 28.7769 26.9864 28.764 26.9029 28.7512C26.2276 28.6483 25.5574 28.6325 24.8756 28.6293C24.8335 28.6289 24.7914 28.6286 24.7479 28.6282C23.9314 28.6232 23.2014 28.7137 22.432 28.9916C22.3601 29.0128 22.2881 29.0337 22.2158 29.0538C21.6695 29.2152 21.1446 29.4663 20.6206 29.6881C20.5019 29.7382 20.383 29.7879 20.2642 29.8377C20.2042 29.8627 20.2042 29.8627 20.143 29.8882C20.0415 29.9301 19.9397 29.9717 19.838 30.0129C19.5041 30.1483 19.175 30.2898 18.8495 30.4442C18.6745 30.527 18.4981 30.6013 18.3176 30.6712C18.0437 30.7824 17.7752 30.9067 17.5054 31.0275C17.4208 31.0651 17.3358 31.1014 17.2506 31.1376C17.1451 31.1832 17.0437 31.2304 16.9421 31.2838C16.8312 31.3401 16.7274 31.3845 16.6096 31.427C16.4243 31.4942 16.2513 31.582 16.076 31.6718C15.9197 31.7514 15.7623 31.8276 15.6027 31.9004C14.5458 32.3577 14.5458 32.3577 13.6957 33.1002C13.6678 33.2475 13.687 33.3028 13.7675 33.4301C14.1412 33.8093 14.8234 34.0023 15.3391 34.0949C15.4191 34.1117 15.4191 34.1117 15.5006 34.1288C16.6566 34.3629 17.8852 34.1732 19.0034 33.8327C19.1558 33.7891 19.3086 33.7563 19.464 33.7247C19.6543 33.6855 19.8281 33.6393 20.0072 33.5653C20.1652 33.5078 20.3294 33.4733 20.4932 33.4353C20.6148 33.4058 20.6148 33.4058 20.724 33.3596C20.8409 33.3129 20.9551 33.2849 21.0779 33.257C21.2858 33.2066 21.4774 33.1418 21.6732 33.0555C21.7947 33.0095 21.9158 32.9791 22.042 32.9488C22.9129 32.7337 23.7753 32.4037 24.619 32.1015C24.8331 32.0253 25.0489 31.9576 25.2663 31.892C25.4523 31.8348 25.6371 31.7747 25.8218 31.7135C25.8542 31.7029 25.8865 31.6923 25.92 31.6813C26.0691 31.6317 26.2148 31.5796 26.3588 31.5164C26.4648 31.4709 26.556 31.437 26.6678 31.4135C26.7885 31.3856 26.9011 31.3506 27.0164 31.3055C27.1561 31.2509 27.2955 31.2138 27.4418 31.1795C27.5482 31.1506 27.6488 31.1124 27.7517 31.0729C28.2224 30.8987 28.7195 30.8025 29.2086 30.6945C29.2686 30.6811 29.2686 30.6811 29.3299 30.6675C30.848 30.3378 32.2798 30.5042 33.7202 31.0675C33.7642 31.0847 33.7642 31.0847 33.8091 31.1022C33.9373 31.1525 34.0651 31.2041 34.1927 31.2561C34.4251 31.3504 34.6589 31.4404 34.8934 31.5298C34.9357 31.5462 34.9778 31.5626 35.0214 31.5797C35.5278 31.7717 36.0052 31.8697 36.5476 31.865C36.6239 31.8645 36.6239 31.8645 36.7017 31.8641C37.1836 31.8555 37.6243 31.7871 38.0491 31.5445C38.1317 31.5 38.1317 31.5 38.274 31.44C38.7015 31.2593 39.1012 30.998 39.4724 30.7215C39.5368 30.6736 39.5368 30.6736 39.6026 30.6248C40.1163 30.2383 40.5978 29.8137 41.0726 29.3808C41.1134 29.3441 41.1542 29.3072 41.1961 29.2694C41.5951 28.9084 41.9879 28.5386 42.3369 28.1286C42.4302 28.0204 42.5273 27.9155 42.624 27.8104C42.8009 27.6164 42.9688 27.4174 43.1333 27.2134C43.2253 27.1004 43.3193 26.9898 43.4141 26.8793C43.6429 26.6124 43.8533 26.3374 44.0568 26.0506C44.1143 25.9731 44.1721 25.8956 44.2297 25.8181C44.7252 25.134 45.0984 24.4329 45.1137 23.5746C45.1146 23.5424 45.1155 23.5101 45.1166 23.477C45.1155 23.1989 45.0343 22.9627 44.8353 22.7637C44.8457 22.6701 44.8457 22.6701 44.8731 22.5635C44.8819 22.5283 44.8906 22.4929 44.8998 22.4566C44.907 22.4294 44.9143 22.4024 44.9217 22.3744Z" fill="var(--fill-0, #A4D6DE)"/>
<path id="Vector_3" d="M45.9598 23.6286C45.9883 23.6286 46.0168 23.6286 46.0463 23.6286C46.1178 23.7317 46.1178 23.7317 46.1976 23.8692C46.2239 23.9139 46.2503 23.9586 46.2773 24.0047C46.4139 24.2773 46.4512 24.5238 46.4489 24.8234C46.4488 24.8575 46.4486 24.8916 46.4484 24.9266C46.4398 25.3578 46.3539 25.74 46.1448 26.1192C46.0848 26.2288 46.0848 26.2288 46.028 26.3693C45.96 26.526 45.8827 26.6706 45.7975 26.8183C45.7826 26.8444 45.7675 26.8705 45.7521 26.8973C45.6324 27.1034 45.5059 27.3047 45.3764 27.5048C45.3233 27.5884 45.2743 27.6719 45.2271 27.7589C45.1293 27.9337 45.0091 28.0916 44.8902 28.2524C44.8025 28.3718 44.7164 28.4924 44.6309 28.6135C44.3456 29.0171 44.0376 29.3985 43.7169 29.7745C43.5872 29.927 43.4605 30.0816 43.3351 30.2378C43.1935 30.4118 43.0444 30.5711 42.8836 30.7273C42.807 30.8035 42.7371 30.8823 42.6675 30.9648C42.3533 31.3295 42.0039 31.6752 41.6366 31.9861C41.5437 32.0663 41.4537 32.1492 41.3639 32.2327C41.1022 32.4755 40.8322 32.7043 40.5535 32.9273C40.5041 32.9678 40.4547 33.0082 40.4053 33.0486C39.8316 33.5167 39.2247 33.936 38.6059 34.342C38.5461 34.3811 38.4865 34.4204 38.4268 34.4599C38.3294 34.5242 38.2319 34.5881 38.1343 34.6519C38.1047 34.6714 38.075 34.691 38.0445 34.7111C37.849 34.8384 37.6496 34.9457 37.4396 35.0465C37.386 35.0732 37.3323 35.1 37.2788 35.127C36.2165 35.6581 36.2165 35.6581 36.1371 35.6978C36.0798 35.7265 36.0225 35.7553 35.9653 35.7842C35.7401 35.8981 35.5127 35.9942 35.2772 36.0846C35.2278 36.1036 35.1784 36.1228 35.1276 36.1425C34.5259 36.3734 33.9142 36.6017 33.2851 36.745C33.1543 36.7774 33.0276 36.8169 32.8994 36.8581C32.6012 36.9507 32.3011 37.0207 31.9957 37.0847C31.9157 37.1016 31.9157 37.1016 31.8343 37.1189C31.5214 37.184 31.2114 37.2404 30.8935 37.2755C30.7319 37.296 30.5737 37.325 30.4137 37.3556C29.9834 37.4342 29.5507 37.4795 29.1158 37.5227C28.9841 37.5358 28.8524 37.5496 28.7204 37.5634C27.4105 37.6981 26.1114 37.7434 24.7953 37.7417C24.6244 37.7415 24.4535 37.7417 24.2829 37.7426C23.354 37.7469 22.4299 37.7337 21.5031 37.6677C21.4455 37.6636 21.4455 37.6636 21.387 37.6595C20.9691 37.6293 20.5547 37.5891 20.1399 37.5291C19.9834 37.5082 19.8328 37.503 19.675 37.5009C19.1057 37.4814 18.5427 37.3571 17.9837 37.2559C17.7486 37.2136 17.513 37.1769 17.2765 37.1432C17.1161 37.1158 16.962 37.0735 16.8064 37.0265C16.6969 36.9973 16.5894 36.9751 16.4781 36.9542C16.2414 36.9078 16.0145 36.84 15.7851 36.7657C15.7436 36.7522 15.7019 36.7388 15.6591 36.725C15.0438 36.5234 14.4765 36.2709 13.9119 35.9547C13.8729 35.9331 13.834 35.9115 13.7938 35.8893C13.5443 35.7261 13.3469 35.507 13.2848 35.2114C13.262 35.0551 13.2613 34.9016 13.2632 34.7437C13.295 34.7642 13.3268 34.7845 13.3596 34.8054C13.4018 34.8324 13.444 34.8593 13.4875 34.887C13.55 34.9269 13.55 34.9269 13.6137 34.9677C13.6757 35.0066 13.6757 35.0066 13.7389 35.0465C13.773 35.0685 13.807 35.0905 13.8421 35.113C14.234 35.3322 14.6801 35.4637 15.1229 35.5222C15.1665 35.5302 15.2102 35.5381 15.2552 35.5463C16.0338 35.6754 16.8528 35.6456 17.6322 35.5342C17.7173 35.5224 17.8027 35.5129 17.8881 35.5034C18.2123 35.4661 18.5125 35.4006 18.8243 35.3055C18.9626 35.2655 19.0986 35.2358 19.2397 35.2088C19.7048 35.1132 20.1566 34.9649 20.6107 34.8274C20.7214 34.7942 20.8321 34.7618 20.9432 34.7301C21.6855 34.5186 22.4163 34.2667 23.1427 34.0064C23.3083 33.9475 23.4745 33.8935 23.643 33.8437C24.1111 33.7032 24.568 33.527 25.0271 33.3598C25.3401 33.246 25.652 33.1358 25.972 33.043C26.0788 33.0095 26.1788 32.9648 26.2807 32.9191C26.4419 32.8543 26.6094 32.8083 26.7757 32.7581C27.153 32.643 27.5257 32.5139 27.8974 32.3827C28.2585 32.2552 28.6202 32.1326 28.9865 32.0214C29.0734 31.9949 29.1598 31.9677 29.2457 31.9383C30.2296 31.6098 31.4609 31.5501 32.4048 32.021C32.7142 32.1846 33.0095 32.3717 33.3017 32.5642C34.5546 33.3874 35.7136 33.8139 37.2389 33.5685C39.0348 33.1619 40.4659 32.0639 41.8004 30.8491C41.8834 30.7748 41.9678 30.7032 42.0539 30.6324C42.188 30.5184 42.2991 30.3913 42.4129 30.257C42.5147 30.1425 42.6227 30.0367 42.7323 29.9296C42.9266 29.7388 43.1007 29.5371 43.2702 29.3242C43.3642 29.2086 43.4618 29.0987 43.5621 28.9889C43.7512 28.7808 43.9273 28.5648 44.1 28.3429C44.1173 28.3209 44.1345 28.2988 44.1522 28.276C44.4634 27.878 44.7561 27.4703 45.0343 27.0486C45.0885 26.9683 45.145 26.8906 45.2029 26.8129C45.346 26.6137 45.4567 26.3974 45.5706 26.1805C45.5957 26.1348 45.6207 26.0894 45.6468 26.0426C46.0152 25.3519 46.2311 24.6006 46.0247 23.8234C46.004 23.7581 45.9827 23.6931 45.9598 23.6286Z" fill="var(--fill-0, #E9FBFE)"/>
<path id="Vector_4" d="M25.17 17.5628C25.2071 17.5637 25.244 17.5645 25.2822 17.5654C25.3224 17.567 25.3627 17.5686 25.4042 17.5703C25.4683 17.5721 25.4683 17.5721 25.5337 17.5739C25.6757 17.5779 25.8177 17.583 25.9597 17.588C26.0596 17.591 26.1594 17.594 26.2593 17.597C26.5239 17.6049 26.7883 17.6136 27.0527 17.6225C27.3157 17.6312 27.5788 17.6392 27.8419 17.6473C28.1482 17.6567 28.4544 17.6662 28.7605 17.6765C29.2047 17.6914 29.6486 17.7052 30.093 17.7119C30.1647 17.7132 30.2365 17.7145 30.3082 17.7158C30.4368 17.7181 30.5652 17.7194 30.6939 17.7201C30.7491 17.7211 30.8044 17.7221 30.8614 17.7231C30.9088 17.7235 30.9559 17.7239 31.0047 17.7244C31.1253 17.7468 31.1253 17.7468 31.2268 17.8054C31.342 17.99 31.3222 18.176 31.3206 18.3893C31.3209 18.4371 31.3211 18.485 31.3215 18.5342C31.3222 18.6926 31.3217 18.8508 31.3211 19.0092C31.3213 19.1189 31.3215 19.2289 31.3217 19.3388C31.3219 19.5691 31.3215 19.7994 31.3207 20.0299C31.3198 20.296 31.3202 20.5623 31.3211 20.8286C31.3219 21.0848 31.3219 21.341 31.3213 21.5972C31.3213 21.7062 31.3213 21.8152 31.3219 21.924C31.3222 22.0763 31.3215 22.2285 31.3206 22.3807C31.3209 22.426 31.3213 22.4711 31.3217 22.5177C31.3181 22.8181 31.3181 22.8181 31.2278 22.9636C31.0955 23.0404 30.9973 23.0516 30.8445 23.0614C30.8165 23.0633 30.7886 23.0653 30.7599 23.0674C30.6673 23.0737 30.5747 23.0791 30.4819 23.0843C30.4161 23.0886 30.3501 23.0931 30.2843 23.0976C30.1098 23.1091 29.9352 23.1198 29.7606 23.1304C29.5891 23.1408 29.4179 23.1522 29.2465 23.1634C28.4929 23.2127 27.7388 23.256 26.9845 23.2962C26.4423 23.3253 25.9008 23.3637 25.3591 23.406C25.3209 23.408 25.2827 23.4102 25.2432 23.4125C25.1993 23.4155 25.1551 23.4184 25.1096 23.4216C24.9617 23.4108 24.9157 23.3855 24.8107 23.2828C24.7889 23.1799 24.7889 23.1799 24.7888 23.0562C24.7884 23.0093 24.7878 22.9623 24.7873 22.914C24.7876 22.8624 24.788 22.811 24.7884 22.7579C24.788 22.7037 24.7878 22.6494 24.7875 22.5935C24.7869 22.4448 24.7871 22.296 24.7875 22.1473C24.788 21.9917 24.7876 21.8361 24.7873 21.6803C24.7869 21.4191 24.7875 21.1576 24.7882 20.8964C24.7891 20.5942 24.7889 20.2919 24.7878 19.9897C24.7871 19.7303 24.7871 19.4709 24.7875 19.2114C24.7878 19.0565 24.7878 18.9015 24.7873 18.7465C24.7865 18.5738 24.7875 18.4011 24.7884 18.2284C24.788 18.1769 24.7876 18.1254 24.7873 18.0723C24.7878 18.0254 24.7884 17.9784 24.7888 17.9301C24.7889 17.8892 24.7889 17.8484 24.7889 17.8063C24.8107 17.7035 24.8107 17.7035 24.887 17.6252C24.9937 17.5686 25.0504 17.559 25.17 17.5628Z" fill="var(--fill-0, #A4D6DE)"/>
<path id="Vector_5" d="M31.7469 24.8309C31.7937 24.8307 31.8404 24.8303 31.8887 24.8301C31.9876 24.8298 32.0868 24.8294 32.1857 24.8292C32.3333 24.8288 32.4809 24.8275 32.6284 24.8262C33.3878 24.8225 34.1497 24.8599 34.8911 25.0371C35.0195 25.066 35.1492 25.0807 35.2798 25.0964C35.5137 25.1281 35.7104 25.1773 35.9258 25.2721C35.8155 25.4851 35.6594 25.6381 35.4907 25.8047C35.4632 25.8326 35.4356 25.8606 35.4071 25.8893C35.3806 25.9155 35.3542 25.942 35.327 25.969C35.2908 26.005 35.2908 26.005 35.2539 26.0417C35.1906 26.0939 35.1906 26.0939 35.1041 26.0939C35.094 26.1186 35.0838 26.1434 35.0734 26.1689C35.0048 26.2897 34.9228 26.3601 34.8175 26.4507C34.6759 26.5748 34.5386 26.7 34.4066 26.8345C33.5748 27.6747 32.5083 28.4765 31.3847 28.8619C31.3476 28.8773 31.3103 28.8928 31.2719 28.9088C30.581 29.1727 29.7729 28.9075 29.0955 28.7223C28.8283 28.6511 28.5673 28.6079 28.292 28.5788C28.1409 28.5591 28.1409 28.5591 27.9747 28.519C27.655 28.4454 27.3261 28.4204 27.0002 28.3862C26.9294 28.3785 26.8586 28.3709 26.7878 28.3634C26.6832 28.3522 26.5789 28.3411 26.4743 28.3299C26.3001 28.3114 26.1263 28.2917 25.9524 28.2691C25.2365 28.1784 24.4888 28.1611 23.7729 28.2565C23.7729 28.2278 23.7729 28.1993 23.7729 28.1698C23.8444 28.1061 23.9189 28.0453 23.9944 27.9861C24.1373 27.8732 24.2666 27.7658 24.3837 27.6266C24.5379 27.4957 24.6091 27.5059 24.8027 27.5206C24.9425 27.5214 25.0384 27.4606 25.1568 27.3913C25.1853 27.3913 25.2138 27.3913 25.2432 27.3913C25.244 27.3606 25.2447 27.3298 25.2455 27.2979C25.2634 27.0997 25.2784 26.9629 25.4292 26.8243C25.5522 26.7477 25.6768 26.6793 25.8056 26.613C25.8591 26.5783 25.9122 26.5433 25.9649 26.5075C26.2174 26.3497 26.4893 26.2245 26.7563 26.0937C26.8466 26.0491 26.9366 26.0039 27.0266 25.9584C27.493 25.7251 27.493 25.7251 27.7084 25.7912C27.9061 25.8509 28.0168 25.8129 28.2058 25.7344C28.2535 25.7148 28.3014 25.6955 28.3504 25.6753C28.3955 25.6565 28.4406 25.6377 28.487 25.6181C28.5266 25.606 28.5663 25.5937 28.6073 25.5812C28.7143 25.5402 28.7143 25.5403 28.7374 25.4249C28.7898 25.3153 28.7898 25.3153 28.9448 25.2546C29.0135 25.2378 29.0827 25.2222 29.152 25.2073C29.2081 25.1942 29.2081 25.1942 29.2653 25.181C30.0818 24.9978 30.9082 24.8344 31.7469 24.8309Z" fill="var(--fill-0, #FCFCFC)"/>
<path id="Vector_6" d="M39.9579 21.4083C40.0019 21.4083 40.0457 21.4083 40.091 21.4081C40.2356 21.4083 40.3802 21.4092 40.5248 21.4103C40.6254 21.4105 40.7258 21.4107 40.8263 21.4109C41.0903 21.4112 41.3543 21.4125 41.6184 21.414C41.888 21.4153 42.1576 21.4159 42.4273 21.4166C42.9561 21.418 43.4847 21.4202 44.0135 21.423C43.9802 21.4496 43.9466 21.4763 43.9124 21.5037C43.0183 22.2207 42.4081 23.1792 42.2549 24.3309C42.223 24.6872 42.2094 25.0446 42.197 25.4018C41.4397 25.3871 40.6983 25.3401 39.9466 25.2447C39.7528 25.2209 39.5586 25.2013 39.3643 25.1829C39.3108 25.1776 39.3108 25.1776 39.2562 25.1722C39.0423 25.1519 38.8289 25.1376 38.6145 25.127C38.564 25.1242 38.5133 25.1214 38.4613 25.1184C38.3629 25.1128 38.2643 25.1083 38.1658 25.105C37.9025 25.0897 37.7234 25.0601 37.5343 24.867C37.413 24.7004 37.4415 24.521 37.4672 24.3253C37.6453 23.2876 38.1416 22.3763 38.9778 21.7258C39.0691 21.6639 39.1597 21.6061 39.256 21.5527C39.2916 21.5305 39.3272 21.5083 39.3639 21.4856C39.5666 21.4019 39.7409 21.4058 39.9579 21.4083Z" fill="var(--fill-0, #A4D6DE)"/>
<path id="Vector_7" d="M39.2993 39.5877C39.3028 39.6859 39.3054 39.7841 39.3075 39.8823C39.3089 39.9371 39.3104 39.9917 39.3119 40.0481C39.2993 40.1931 39.2993 40.1931 39.2542 40.2693C39.1254 40.3509 38.9884 40.4025 38.8452 40.4527C38.8129 40.464 38.7805 40.4754 38.7471 40.4871C38.408 40.6002 38.0659 40.6507 37.7126 40.6979C37.5861 40.716 37.4609 40.7391 37.3353 40.7627C37.0239 40.8214 36.714 40.862 36.3988 40.892C36.0721 40.9241 35.7479 40.9709 35.4231 41.0176C35.0236 41.0747 34.6299 41.1188 34.2268 41.1354C34.0586 41.1451 33.895 41.1663 33.7282 41.1906C32.9845 41.2936 32.9845 41.2936 32.7606 41.1311C32.5828 40.8675 32.6027 40.5423 32.6389 40.2365C32.7321 40.0809 32.8586 40.0334 33.0281 39.977C33.1545 39.9712 33.2799 39.9676 33.4062 39.9661C33.445 39.9656 33.4835 39.9648 33.5234 39.9643C33.6078 39.9628 33.6921 39.9615 33.7765 39.9604C33.911 39.9583 34.0455 39.9561 34.1803 39.9537C34.563 39.947 34.9457 39.9404 35.3284 39.9348C36.8216 39.9184 36.8216 39.9184 38.3046 39.7606C38.345 39.7545 38.3853 39.7483 38.427 39.742C38.7073 39.6991 39.0257 39.5877 39.2993 39.5877Z" fill="var(--fill-0, #E9FBFE)"/>
<path id="Vector_8" d="M24.5946 17.5738C24.5802 17.6167 24.5659 17.6595 24.5512 17.7036C24.5473 17.7784 24.5458 17.8533 24.5458 17.9282C24.5456 17.9747 24.5456 18.0212 24.5454 18.0691C24.5454 18.1201 24.5456 18.1712 24.5456 18.2238C24.5456 18.2775 24.5456 18.3312 24.5454 18.3866C24.5452 18.534 24.5454 18.6814 24.5454 18.8288C24.5456 18.9831 24.5454 19.1374 24.5454 19.2917C24.5454 19.5509 24.5454 19.8099 24.5456 20.0691C24.5458 20.3687 24.5458 20.6681 24.5456 20.9678C24.5454 21.2249 24.5454 21.482 24.5454 21.7392C24.5456 21.8927 24.5456 22.0463 24.5454 22.2C24.5452 22.3712 24.5454 22.5425 24.5456 22.7137C24.5456 22.7648 24.5456 22.8157 24.5454 22.8682C24.5456 22.9148 24.5456 22.9614 24.5458 23.0094C24.5458 23.0499 24.5458 23.0905 24.5458 23.132C24.5508 23.2319 24.5663 23.3171 24.5946 23.4125C24.4364 23.4309 24.3557 23.4253 24.2188 23.3409C24.0665 23.179 24.0969 22.9716 24.0997 22.7622C24.1025 22.6813 24.1025 22.6813 24.1053 22.5989C24.1062 22.5442 24.1071 22.4894 24.1083 22.4331C24.1107 22.2982 24.1142 22.1633 24.1187 22.0286C24.0902 22.0286 24.0617 22.0286 24.0322 22.0286C24.0188 22.0794 24.0188 22.0794 24.0052 22.1312C23.9243 22.3444 23.8071 22.5279 23.6862 22.7204C23.6648 22.7551 23.6434 22.7896 23.6212 22.8253C23.5711 22.9058 23.5206 22.9861 23.4701 23.0665C23.4298 23.0264 23.3898 22.9861 23.3484 22.945C23.154 22.7758 22.9394 22.7284 22.6916 22.6772C22.768 22.462 22.8814 22.2693 22.9943 22.0718C23.0128 22.0396 23.0311 22.0071 23.0501 21.974C23.1069 21.8748 23.1641 21.7759 23.2213 21.6771C23.2418 21.6417 23.2625 21.6063 23.2835 21.5698C23.8098 20.6639 23.8098 20.6639 23.9145 20.5316C24.1157 20.2621 24.1038 20.0052 24.0986 19.6789C24.0986 19.6241 24.0988 19.5693 24.0989 19.5129C24.0993 19.3386 24.0984 19.1644 24.0971 18.9902C24.0954 18.7602 24.0952 18.5303 24.0958 18.3003C24.095 18.2474 24.0941 18.1945 24.0932 18.14C24.0934 18.0909 24.0935 18.0418 24.0937 17.9913C24.0934 17.9481 24.093 17.905 24.0926 17.8605C24.1187 17.7468 24.1187 17.7468 24.2195 17.6457C24.3559 17.5608 24.4368 17.5592 24.5946 17.5738Z" fill="var(--fill-0, #A4D6DE)"/>
<path id="Vector_9" d="M44.4216 21.5959C44.5325 21.6391 44.5325 21.6391 44.6135 21.7716C44.7626 22.1931 44.507 22.7519 44.3268 23.1347C43.8926 23.9812 43.3357 24.8085 42.543 25.3586C42.5288 25.3586 42.5145 25.3586 42.4998 25.3586C42.4396 24.2734 42.7187 23.1809 43.445 22.3493C44.1246 21.5959 44.1246 21.5959 44.4216 21.5959Z" fill="var(--fill-0, #A4D6DE)"/>
<path id="Vector_10" d="M22.9079 22.9366C23.0661 23.0247 23.1529 23.0881 23.2537 23.2394C23.2681 23.4328 23.2677 23.5895 23.1673 23.7583C23.0536 23.8636 22.9688 23.9258 22.8119 23.94C22.637 23.9298 22.5343 23.8984 22.3861 23.8016C22.2719 23.6247 22.2684 23.4876 22.3023 23.2826C22.4143 23.0115 22.6176 22.895 22.9079 22.9366Z" fill="var(--fill-0, #A4D6DE)"/>
<path id="Vector_11" d="M20.9184 41.2744C21.0283 41.3353 21.1267 41.4089 21.2264 41.4853C21.2797 41.5248 21.333 41.5644 21.3863 41.6039C21.4317 41.638 21.477 41.6719 21.5238 41.7069C21.5666 41.7354 21.6095 41.7641 21.6535 41.7935C21.6535 41.8221 21.6535 41.8506 21.6535 41.88C21.4742 41.8532 21.295 41.826 21.1157 41.7989C21.0652 41.7913 21.0149 41.7839 20.9629 41.776C20.6857 41.7339 20.4129 41.6853 20.1399 41.6204C20.1831 41.4907 20.1831 41.4907 20.2932 41.4307C20.3389 41.4121 20.3847 41.3937 20.4317 41.3745C20.477 41.3557 20.5222 41.3366 20.569 41.3173C20.7041 41.2739 20.7792 41.25 20.9184 41.2744Z" fill="var(--fill-0, #E9FBFE)"/>
<path id="Vector_12" d="M17.3719 37.8143C17.4004 37.8857 17.429 37.9571 17.4584 38.0307C17.4239 38.0501 17.3895 38.0694 17.354 38.0894C16.9795 38.3029 16.7058 38.4622 16.5069 38.8524C16.3909 38.8112 16.3436 38.7842 16.2852 38.6739C16.2941 38.4699 16.4138 38.3486 16.5501 38.2036C16.7888 37.9891 17.0428 37.8143 17.3719 37.8143Z" fill="var(--fill-0, #E9FBFE)"/>
<path id="Vector_13" d="M18.1504 38.7227C18.2233 38.8308 18.2233 38.8308 18.2801 38.9391C18.2534 38.9506 18.2267 38.9622 18.1992 38.9741C17.8308 39.1446 17.4765 39.3663 17.3286 39.7608C17.1991 39.7176 17.1488 39.6952 17.0691 39.5877C17.1098 39.3246 17.2919 39.131 17.4935 38.9715C17.6925 38.8304 17.9017 38.7227 18.1504 38.7227Z" fill="var(--fill-0, #E9FBFE)"/>
<path id="Vector_14" d="M18.5051 39.1584C18.6062 39.2104 18.6516 39.2769 18.7125 39.3714C18.6822 39.3866 18.652 39.4019 18.6207 39.4176C18.2773 39.5963 17.9362 39.7888 17.7611 40.1499C17.6557 40.1175 17.6557 40.1175 17.5449 40.0634C17.5079 39.9865 17.5079 39.9865 17.5016 39.8905C17.6726 39.557 18.1061 39.145 18.5051 39.1584Z" fill="var(--fill-0, #E9FBFE)"/>
<path id="Vector_15" d="M18.9423 39.5903C19.0384 39.6438 19.0567 39.706 19.1018 39.8039C19.0612 39.8284 19.0204 39.853 18.9784 39.8784C18.5153 40.1564 18.5153 40.1564 18.1936 40.5824C18.0569 40.5231 18.0209 40.4965 17.9341 40.3662C18.1093 40.0273 18.359 39.7951 18.7045 39.6309C18.8424 39.5877 18.8424 39.5877 18.9423 39.5903Z" fill="var(--fill-0, #E9FBFE)"/>
<path id="Vector_16" d="M17.7611 38.3335C17.8094 38.4222 17.8094 38.4222 17.8476 38.5064C17.7977 38.5297 17.7477 38.5528 17.6962 38.5766C17.3501 38.7516 17.112 38.9627 16.8961 39.2849C16.8123 39.2499 16.8123 39.2499 16.7231 39.1984C16.6799 39.0688 16.6799 39.0688 16.7231 38.9497C16.9129 38.6415 17.1691 38.4248 17.5097 38.2983C17.6083 38.2882 17.6697 38.2938 17.7611 38.3335Z" fill="var(--fill-0, #E9FBFE)"/>
<path id="Vector_17" d="M19.4478 40.0202C19.5775 40.1644 19.5775 40.1644 19.5775 40.2798C19.5285 40.2948 19.4795 40.3099 19.429 40.3256C19.1012 40.4491 18.8402 40.667 18.6693 40.9716C18.5413 40.9452 18.4799 40.9174 18.3666 40.8419C18.4767 40.5209 18.6909 40.3269 18.9721 40.1499C19.129 40.075 19.2717 40.0202 19.4478 40.0202Z" fill="var(--fill-0, #E9FBFE)"/>
<path id="Vector_18" d="M17.1124 37.5117C17.1124 37.5402 17.1124 37.5688 17.1124 37.5982C17.0862 37.6062 17.06 37.6142 17.033 37.6224C16.7048 37.7359 16.4914 37.9178 16.2474 38.1604C16.2226 38.1846 16.1978 38.2088 16.1722 38.2338C16.1245 38.2807 16.0777 38.3286 16.0311 38.3767C15.9636 38.3281 15.9636 38.3281 15.9014 38.247C15.9138 37.9602 16.0643 37.8389 16.2636 37.6509C16.5217 37.4327 16.7919 37.3515 17.1124 37.5117Z" fill="var(--fill-0, #E9FBFE)"/>
<path id="Vector_19" d="M19.9235 40.4527C19.9992 40.5607 19.9992 40.5607 20.0534 40.6688C20.007 40.6878 20.007 40.6878 19.9599 40.707C19.6414 40.8434 19.3834 40.9819 19.1883 41.2744C19.1027 41.2601 19.017 41.2459 18.9289 41.2312C18.9017 41.1537 18.9017 41.1537 18.8857 41.0581C19.0904 40.7292 19.53 40.4527 19.9235 40.4527Z" fill="var(--fill-0, #E9FBFE)"/>
<path id="Vector_20" d="M20.5291 40.9716C20.5148 41.0145 20.5006 41.0573 20.4859 41.1015C20.4147 41.1319 20.3434 41.1621 20.2709 41.1896C20.1699 41.2375 20.0939 41.2983 20.0074 41.3691C19.8907 41.46 19.8438 41.4896 19.6938 41.515C19.5682 41.4887 19.5239 41.4622 19.4478 41.3609C19.7309 41.0514 20.1007 40.7575 20.5291 40.9716Z" fill="var(--fill-0, #E9FBFE)"/>
<path id="Vector_21" d="M16.1609 37.2522C16.1894 37.2809 16.218 37.3094 16.2474 37.3388C16.2129 37.367 16.2129 37.367 16.1778 37.3958C15.9935 37.5512 15.8503 37.6927 15.7284 37.901C15.5987 37.8578 15.5987 37.8578 15.5338 37.7659C15.5085 37.6207 15.5235 37.6014 15.6041 37.4847C15.7795 37.2682 15.8725 37.1707 16.1609 37.2522Z" fill="var(--fill-0, #E9FBFE)"/>
<path id="Vector_22" d="M14.8634 36.8197C15.0999 36.8953 15.3287 36.9779 15.5554 37.0793C15.5349 37.2635 15.4247 37.3446 15.2959 37.4685C15.2235 37.3768 15.1515 37.2848 15.0796 37.1927C15.0487 37.1536 15.0487 37.1536 15.0171 37.1137C14.8634 36.916 14.8634 36.916 14.8634 36.8197Z" fill="var(--fill-0, #E9FBFE)"/>
<path id="Vector_23" d="M43.7972 21.5527C43.8257 21.567 43.8544 21.5812 43.8837 21.5959C43.6411 21.8385 43.3984 22.0811 43.1486 22.3312C43.1201 22.3168 43.0914 22.3027 43.0619 22.2879C43.1357 22.2058 43.2097 22.1238 43.2837 22.042C43.3042 22.0191 43.3247 21.9961 43.3459 21.9725C43.4866 21.8175 43.6338 21.6835 43.7972 21.5527Z" fill="var(--fill-0, #D5D5D5)"/>
<path id="Vector_24" d="M45.9598 23.6286C45.9883 23.6286 46.0168 23.6286 46.0463 23.6286C46.1063 23.7136 46.1642 23.8001 46.2192 23.8882C46.205 23.9167 46.1907 23.9452 46.176 23.9747C46.1618 23.9605 46.1475 23.9462 46.1327 23.9314C46.1042 23.9599 46.0757 23.9884 46.0463 24.0179C46.0178 23.8895 45.9891 23.7611 45.9598 23.6286Z" fill="var(--fill-0, #C1C0C0)"/>
</g>
<defs>
<clipPath id="clip0_0_139">
<rect width="60" height="60" fill="white"/>
</clipPath>
</defs>
</svg>
