<svg preserveAspectRatio="none" width="100%" height="100%" overflow="visible" style="display: block;" viewBox="0 0 60 60" fill="none" xmlns="http://www.w3.org/2000/svg">
<g id="Group 5903">
<circle id="Ellipse 1" cx="30" cy="30" r="30" fill="var(--fill-0, white)"/>
<g id="Group 5906">
<path id="Vector" d="M29.6719 13.3846C30.682 13.3846 31.692 13.3846 32.7327 13.3846C32.7327 14.0671 32.6654 14.6614 32.514 15.3158C32.5077 15.3439 32.5014 15.3721 32.4949 15.401C32.2114 16.6439 31.5602 17.738 30.8558 18.7844C30.1034 19.9036 29.6186 21.0287 29.6196 22.396C29.6196 22.4284 29.6196 22.4607 29.6196 22.4941C29.6243 23.835 30.1341 24.9883 30.8835 26.0818C31.637 27.1832 32.239 28.2959 32.5436 29.606C32.5503 29.6345 32.557 29.6629 32.5638 29.6922C32.7001 30.3188 32.7517 30.9381 32.7463 31.5782C32.7462 31.614 32.746 31.6498 32.7458 31.6867C32.7431 32.2252 32.7217 32.7487 32.6233 33.2794C32.6175 33.3139 32.6116 33.3485 32.6056 33.3841C32.3659 34.7855 31.7436 36.0306 30.9198 37.1769C30.7432 37.4237 30.5871 37.6797 30.4371 37.9433C30.4247 37.9646 30.4123 37.9859 30.3996 38.0078C29.8565 38.9448 29.6556 39.9294 29.5991 41.0041C28.577 41.0041 27.5549 41.0041 26.5019 41.0041C26.5019 39.8645 26.5019 39.8645 26.5816 39.435C26.59 39.387 26.5983 39.3391 26.6067 39.2912C26.6715 38.9314 26.7521 38.582 26.8663 38.2348C26.8752 38.2067 26.8841 38.1785 26.8933 38.1495C27.006 37.7951 27.1382 37.4532 27.2967 37.1167C27.31 37.0882 27.3233 37.0597 27.3371 37.0304C27.5809 36.5278 27.8855 36.0592 28.1994 35.5983C28.4934 35.1656 28.7861 34.7342 29.0161 34.2632C29.0335 34.2276 29.0335 34.2276 29.0513 34.1913C29.3431 33.5857 29.5176 32.9618 29.5991 32.2955C29.6038 32.259 29.6086 32.2225 29.6136 32.1848C29.7844 30.657 29.2381 29.2458 28.3966 27.996C28.3539 27.9323 28.3112 27.8686 28.2685 27.8049C28.2469 27.7726 28.2252 27.7403 28.2029 27.7071C27.3913 26.4962 26.7888 25.2252 26.5748 23.7692C26.5681 23.7262 26.5614 23.6831 26.5544 23.6387C26.5013 23.266 26.4906 22.8987 26.4924 22.5224C26.4928 22.4236 26.4924 22.3247 26.4919 22.2258C26.4902 20.2522 27.2284 18.4754 28.3484 16.8788C29.1031 15.798 29.5521 14.7023 29.6719 13.3846Z" fill="var(--fill-0, #A4D6DE)"/>
<path id="Vector_2" d="M20.8905 19.0324C21.9126 19.0324 22.9347 19.0324 23.9877 19.0324C23.9877 19.3341 23.9628 19.6107 23.9148 19.9069C23.9103 19.9349 23.9058 19.9628 23.9012 19.9917C23.6871 21.2769 23.0437 22.3168 22.212 23.2944C21.3387 24.321 20.729 25.244 20.8177 26.6478C20.9289 27.5319 21.4485 28.2489 22.0117 28.9071C23.1454 30.2353 23.9582 31.6924 23.958 33.4782C23.9581 33.5587 23.9588 33.6392 23.9595 33.7196C23.9608 34.0652 23.934 34.3951 23.8784 34.7368C23.8738 34.7664 23.8693 34.7959 23.8646 34.8263C23.6919 35.8756 23.1528 36.8004 22.4938 37.6154C22.4498 37.6703 22.4498 37.6703 22.405 37.7264C22.2787 37.8824 22.1493 38.0357 22.019 38.1883C21.2714 39.0656 20.86 39.8224 20.7812 41.004C19.7592 41.004 18.7371 41.004 17.6841 41.004C17.6841 40.2801 17.6841 40.2801 17.7455 39.9109C17.7554 39.85 17.7554 39.85 17.7655 39.7879C17.8642 39.207 18.0471 38.6914 18.3035 38.1619C18.3206 38.1263 18.3206 38.1263 18.3381 38.0899C18.5988 37.5543 18.9493 37.0788 19.3391 36.6304C19.4536 36.4985 19.5644 36.3639 19.6743 36.2282C19.738 36.1497 19.8023 36.0718 19.867 35.9942C20.2616 35.5171 20.5574 35.0377 20.7448 34.4453C20.7572 34.4073 20.7696 34.3693 20.7824 34.3302C21.0149 33.4958 20.8013 32.6211 20.3901 31.8818C20.143 31.4718 19.8375 31.0956 19.523 30.7359C18.9443 30.0713 18.4733 29.3507 18.1213 28.5425C18.1034 28.5027 18.0855 28.4629 18.0671 28.4219C17.4974 27.0656 17.5284 25.3633 18.0756 24.0093C18.4013 23.2353 18.8385 22.5626 19.3858 21.9297C19.4852 21.8136 19.5807 21.6942 19.6769 21.5754C19.7362 21.5037 19.7959 21.4335 19.8576 21.3639C20.2246 20.9476 20.516 20.503 20.7084 19.9797C20.7324 19.9196 20.7565 19.8595 20.7812 19.7976C20.8173 19.5451 20.8534 19.2925 20.8905 19.0324Z" fill="var(--fill-0, #A4D6DE)"/>
<path id="Vector_3" d="M38.4898 19.0324C39.5118 19.0324 40.5339 19.0324 41.5869 19.0324C41.5869 19.4844 41.5869 19.4844 41.5615 19.6431C41.5558 19.6783 41.5502 19.7135 41.5444 19.7497C41.5381 19.7858 41.5319 19.8219 41.5254 19.859C41.5189 19.8972 41.5124 19.9354 41.5056 19.9748C41.4489 20.2912 41.3674 20.5885 41.259 20.8907C41.2436 20.9372 41.2282 20.9837 41.2129 21.0302C40.951 21.8003 40.4958 22.4657 39.9685 23.0766C39.8631 23.1994 39.7617 23.3248 39.6614 23.4518C39.6014 23.5274 39.5406 23.6022 39.4793 23.6767C38.7219 24.6008 38.3286 25.4796 38.4236 26.6968C38.4841 27.2807 38.7632 27.8221 39.1092 28.2874C39.1508 28.3439 39.1508 28.3439 39.1932 28.4014C39.3479 28.6082 39.511 28.8058 39.6808 29.0002C40.7936 30.2827 41.5563 31.7485 41.5619 33.4729C41.562 33.5152 41.562 33.5152 41.5622 33.5584C41.5624 34.2531 41.4935 34.9528 41.259 35.6113C41.2414 35.6611 41.2414 35.6611 41.2234 35.712C40.9235 36.4855 40.474 37.1753 39.9319 37.7987C39.8174 37.9305 39.7068 38.0651 39.5968 38.2006C39.5325 38.2799 39.4678 38.3588 39.4027 38.4375C38.7437 39.2396 38.446 39.955 38.3805 41.004C37.3584 41.004 36.3363 41.004 35.2833 41.004C35.2833 40.1949 35.2833 40.1949 35.3243 39.9519C35.3291 39.9222 35.3339 39.8925 35.3388 39.862C35.5771 38.4889 36.2685 37.3658 37.172 36.3307C37.976 35.4087 38.538 34.4723 38.4533 33.2065C38.3231 32.1975 37.7047 31.4254 37.0653 30.6783C36.0929 29.5394 35.3209 28.1407 35.2833 26.6113C35.2825 26.5811 35.2818 26.5509 35.281 26.5198C35.2452 24.8217 35.767 23.346 36.8694 22.0472C36.9465 21.9559 37.0211 21.8628 37.096 21.7697C37.1961 21.647 37.2997 21.53 37.408 21.4145C38.0321 20.7259 38.4181 19.9641 38.4898 19.0324Z" fill="var(--fill-0, #A4D6DE)"/>
<path id="Vector_4" d="M17.5383 43.8462C25.4583 43.8462 33.3783 43.8462 41.5383 43.8462C41.5383 44.76 41.5383 45.6738 41.5383 46.6154C33.6183 46.6154 25.6983 46.6154 17.5383 46.6154C17.5383 45.7015 17.5383 44.7877 17.5383 43.8462Z" fill="var(--fill-0, #A4D6DE)"/>
</g>
</g>
</svg>
