<svg width="60" height="60" viewBox="0 0 60 60" fill="none" xmlns="http://www.w3.org/2000/svg">
<rect width="60" height="60" rx="30" fill="white"/>
<path d="M17.0192 22.9296C18.453 22.9296 19.6154 21.7673 19.6154 20.3335C19.6154 18.8996 18.453 17.7373 17.0192 17.7373C15.5854 17.7373 14.4231 18.8996 14.4231 20.3335C14.4231 21.7673 15.5854 22.9296 17.0192 22.9296Z" fill="#E9FBFE"/>
<path d="M45.5769 31.2373V40.0642C45.5769 41.4921 44.4087 42.6604 42.9808 42.6604H22.9644C20.9394 42.6604 19.0702 41.4662 18.2394 39.6229L14.4231 31.2373H45.5769Z" fill="#E9FBFE"/>
<path d="M24.7558 28.7454L21.4586 26.5127C19.3038 25.0329 16.5519 27.3435 17.6423 29.732L19.5375 33.9637C20.1346 35.3137 21.7442 35.8848 23.0683 35.2358L29.4808 32.0166L24.7558 28.7454Z" fill="#E9FBFE"/>
<path d="M17.0192 23.7085C15.15 23.7085 13.6442 22.2027 13.6442 20.3335C13.6442 18.4643 15.15 16.9585 17.0192 16.9585C18.8885 16.9585 20.3942 18.4643 20.3942 20.3335C20.3942 22.2027 18.8885 23.7085 17.0192 23.7085ZM17.0192 18.5162C16.0067 18.5162 15.2019 19.321 15.2019 20.3335C15.2019 21.346 16.0067 22.1508 17.0192 22.1508C18.0317 22.1508 18.8365 21.346 18.8365 20.3335C18.8365 19.321 18.0317 18.5162 17.0192 18.5162Z" fill="#A4D6DE"/>
<path d="M42.9809 43.4395H22.9646C20.628 43.4395 18.4992 42.0635 17.5386 39.9347L13.7222 31.5491C13.5405 31.1597 13.7222 30.6923 14.1117 30.5106C14.5011 30.3289 14.9684 30.5106 15.1501 30.9L18.9405 39.2856C19.6674 40.8693 21.2251 41.8818 22.9646 41.8818H42.9809C43.9934 41.8818 44.7982 41.077 44.7982 40.0645V32.0164H32.2588C31.5838 32.0164 30.8828 32.1722 30.2857 32.4837L23.4319 35.9106C22.6011 36.326 21.6665 36.3779 20.7838 36.0664C19.9011 35.7548 19.2261 35.1058 18.8367 34.275L16.9415 30.0433C16.3184 28.6414 16.6559 27.0837 17.8501 26.0712C19.0444 25.0847 20.628 25.0068 21.9261 25.8635L25.2232 28.0962C25.5867 28.3298 25.6646 28.8231 25.4309 29.1866C25.1972 29.55 24.704 29.6279 24.3405 29.3943L21.0434 27.1616C20.1867 26.5904 19.3559 26.8241 18.8367 27.2654C18.3174 27.6808 17.928 28.4856 18.3434 29.3943L20.2386 33.626C20.4463 34.0933 20.8097 34.4308 21.2771 34.5866C21.7444 34.7423 22.2636 34.7164 22.7049 34.5087L29.5588 31.0818C30.3896 30.6664 31.2982 30.4587 32.2328 30.4587H45.577C46.0184 30.4587 46.3559 30.7962 46.3559 31.2375V40.0645C46.3559 41.9337 44.8501 43.4395 42.9809 43.4395Z" fill="#A4D6DE"/>
<path d="M39.9171 27.4211C39.7094 27.4211 39.5277 27.3432 39.3719 27.1875C39.0604 26.8759 39.0604 26.3827 39.3719 26.0971C40.3585 25.1105 40.3585 23.5009 39.3719 22.5144C37.7883 20.9307 37.7883 18.3346 39.3719 16.7509L39.7354 16.3875C40.0469 16.0759 40.5402 16.0759 40.8258 16.3875C41.1373 16.699 41.1373 17.1923 40.8258 17.4778L40.4623 17.8413C39.4758 18.8278 39.4758 20.4375 40.4623 21.424C42.046 23.0077 42.046 25.6038 40.4623 27.1875C40.3325 27.3432 40.1248 27.4211 39.9171 27.4211Z" fill="#A4D6DE"/>
<path d="M34.725 27.4212C34.5173 27.4212 34.3356 27.3433 34.1798 27.1875C33.8683 26.876 33.8683 26.3827 34.1798 26.0972C35.1663 25.1106 35.1663 23.501 34.1798 22.5145C33.8683 22.2029 33.8683 21.7097 34.1798 21.4241C34.4913 21.1125 34.9846 21.1125 35.2702 21.4241C36.8538 23.0077 36.8538 25.6039 35.2702 27.1875C35.1404 27.3433 34.9327 27.4212 34.725 27.4212Z" fill="#A4D6DE"/>
</svg>
