<svg preserveAspectRatio="none" width="100%" height="100%" overflow="visible" style="display: block;" viewBox="0 0 60 60" fill="none" xmlns="http://www.w3.org/2000/svg">
<g id="Infrared sauna">
<rect width="60" height="60" rx="30" fill="var(--fill-0, white)"/>
<circle id="Ellipse 194" cx="30.2308" cy="31.3462" r="7.38461" fill="var(--fill-0, #E9FBFE)"/>
<path id="Vector (Stroke)" d="M31.014 31.4231V41.2133H29.056V31.4231H31.014Z" fill="var(--fill-0, #A4D6DE)"/>
<path id="Vector (Stroke)_2" d="M39 31.3462V33.1923H21.4615V31.3462H39Z" fill="var(--fill-0, #A4D6DE)"/>
<g id="Group">
<path id="Vector" d="M30.2308 45.5679C31.1651 45.5679 31.9225 44.8105 31.9225 43.8762C31.9225 42.9419 31.1651 42.1844 30.2308 42.1844C29.2965 42.1844 28.5391 42.9419 28.5391 43.8762C28.5391 44.8105 29.2965 45.5679 30.2308 45.5679Z" fill="var(--fill-0, #A4D6DE)"/>
<path id="Vector_2" d="M18.9525 34.2896C19.8868 34.2896 20.6442 33.5321 20.6442 32.5978C20.6442 31.6635 19.8868 30.9061 18.9525 30.9061C18.0181 30.9061 17.2607 31.6635 17.2607 32.5978C17.2607 33.5321 18.0181 34.2896 18.9525 34.2896Z" fill="var(--fill-0, #A4D6DE)"/>
<path id="Vector_3" d="M41.5091 34.2896C42.4435 34.2896 43.2009 33.5322 43.2009 32.5979C43.2009 31.6635 42.4435 30.9061 41.5091 30.9061C40.5748 30.9061 39.8174 31.6635 39.8174 32.5979C39.8174 33.5322 40.5748 34.2896 41.5091 34.2896Z" fill="var(--fill-0, #A4D6DE)"/>
<path id="Vector_4" d="M38.2102 42.269C39.1446 42.269 39.902 41.5116 39.902 40.5773C39.902 39.643 39.1446 38.8855 38.2102 38.8855C37.2759 38.8855 36.5185 39.643 36.5185 40.5773C36.5185 41.5116 37.2759 42.269 38.2102 42.269Z" fill="var(--fill-0, #A4D6DE)"/>
<path id="Vector_5" d="M22.2514 42.269C23.1857 42.269 23.9432 41.5116 23.9432 40.5773C23.9432 39.643 23.1857 38.8855 22.2514 38.8855C21.3171 38.8855 20.5597 39.643 20.5597 40.5773C20.5597 41.5116 21.3171 42.269 22.2514 42.269Z" fill="var(--fill-0, #A4D6DE)"/>
</g>
<path id="Subtract" d="M36.9003 37.8833L35.5155 39.268L30.2303 33.9819L31.6151 32.5981L36.9003 37.8833ZM28.8456 32.5981L27.9569 31.7094H29.7352L28.8456 32.5981Z" fill="var(--fill-0, #A4D6DE)"/>
<path id="Subtract_2" d="M23.1817 37.8833L24.5665 39.268L29.8516 33.9829L28.4668 32.5981L23.1817 37.8833ZM31.2364 32.5981L32.125 31.7094H30.3477L31.2364 32.5981Z" fill="var(--fill-0, #A4D6DE)"/>
<path id="Vector_6" d="M30.4965 12.8846C31.1673 12.8846 31.838 12.8846 32.5291 12.8846C32.5291 13.318 32.4845 13.6954 32.384 14.1109C32.3798 14.1288 32.3755 14.1466 32.3712 14.1651C32.183 14.9543 31.7505 15.649 31.2827 16.3135C30.783 17.0242 30.4611 17.7386 30.4617 18.6069C30.4617 18.6274 30.4617 18.648 30.4617 18.6692C30.4648 19.5206 30.8034 20.253 31.3011 20.9474C31.8015 21.6468 32.2013 22.3533 32.4036 23.1853C32.408 23.2033 32.4125 23.2214 32.417 23.24C32.5076 23.6379 32.5418 24.0311 32.5382 24.4376C32.5381 24.4603 32.538 24.4831 32.5379 24.5065C32.5361 24.8485 32.5219 25.1809 32.4566 25.5179C32.4527 25.5398 32.4488 25.5618 32.4447 25.5844C32.2856 26.4743 31.8723 27.2649 31.3252 27.9928C31.208 28.1496 31.1043 28.3121 31.0047 28.4795C30.9964 28.493 30.9882 28.5065 30.9797 28.5204C30.6191 29.1155 30.4857 29.7407 30.4481 30.4231C29.7693 30.4231 29.0906 30.4231 28.3912 30.4231C28.3912 29.6995 28.3912 29.6995 28.4442 29.4267C28.4497 29.3963 28.4553 29.3658 28.4608 29.3354C28.5039 29.1069 28.5574 28.885 28.6332 28.6646C28.6391 28.6467 28.6451 28.6289 28.6511 28.6104C28.726 28.3854 28.8138 28.1683 28.9191 27.9546C28.9279 27.9365 28.9368 27.9184 28.9459 27.8998C29.1078 27.5806 29.3101 27.2831 29.5186 26.9904C29.7138 26.7157 29.9082 26.4417 30.0609 26.1426C30.0725 26.12 30.0725 26.12 30.0843 26.097C30.2781 25.7124 30.394 25.3162 30.4481 24.8931C30.4513 24.8699 30.4545 24.8467 30.4577 24.8228C30.5712 23.8527 30.2084 22.9565 29.6496 22.1629C29.6212 22.1224 29.5928 22.082 29.5645 22.0416C29.5501 22.0211 29.5357 22.0006 29.5209 21.9794C28.9819 21.2105 28.5818 20.4034 28.4396 19.4789C28.4352 19.4515 28.4307 19.4242 28.4261 19.396C28.3909 19.1593 28.3838 18.9261 28.3849 18.6872C28.3852 18.6244 28.3849 18.5616 28.3846 18.4988C28.3835 17.2455 28.8737 16.1173 29.6175 15.1035C30.1188 14.4171 30.4169 13.7213 30.4965 12.8846Z" fill="var(--fill-0, #A4D6DE)"/>
<path id="Vector_7" d="M24.7437 16.5769C25.4883 16.5769 26.2329 16.5769 27 16.5769C27 16.767 26.9819 16.9414 26.9469 17.128C26.9436 17.1457 26.9404 17.1633 26.937 17.1815C26.781 17.9914 26.3123 18.6467 25.7064 19.2628C25.0702 19.9097 24.626 20.4914 24.6906 21.376C24.7716 21.9332 25.1502 22.385 25.5605 22.7998C26.3864 23.6368 26.9785 24.555 26.9784 25.6804C26.9784 25.7311 26.9789 25.7819 26.9794 25.8326C26.9804 26.0504 26.9609 26.2582 26.9204 26.4736C26.9171 26.4922 26.9137 26.5108 26.9103 26.53C26.7845 27.1912 26.3917 27.774 25.9117 28.2876C25.8796 28.3222 25.8796 28.3222 25.847 28.3576C25.755 28.4559 25.6607 28.5525 25.5657 28.6487C25.0211 29.2015 24.7214 29.6784 24.664 30.4231C23.9194 30.4231 23.1749 30.4231 22.4077 30.4231C22.4077 29.9669 22.4077 29.9669 22.4525 29.7342C22.4597 29.6959 22.4597 29.6959 22.467 29.6567C22.5389 29.2906 22.6722 28.9657 22.859 28.632C22.8714 28.6096 22.8714 28.6096 22.8842 28.5867C23.0741 28.2491 23.3295 27.9495 23.6134 27.6669C23.6969 27.5838 23.7775 27.499 23.8576 27.4134C23.9041 27.364 23.9509 27.3149 23.998 27.266C24.2855 26.9653 24.501 26.6632 24.6375 26.2899C24.6465 26.266 24.6556 26.242 24.6649 26.2173C24.8343 25.6915 24.6787 25.1403 24.3791 24.6744C24.1991 24.4161 23.9765 24.1789 23.7474 23.9523C23.3258 23.5335 22.9826 23.0793 22.7262 22.57C22.7132 22.545 22.7002 22.5199 22.6867 22.4941C22.2717 21.6393 22.2943 20.5666 22.693 19.7133C22.9302 19.2255 23.2487 18.8016 23.6475 18.4027C23.7199 18.3296 23.7894 18.2544 23.8595 18.1795C23.9027 18.1343 23.9462 18.0901 23.9912 18.0462C24.2585 17.7839 24.4708 17.5037 24.6109 17.1739C24.6285 17.1361 24.646 17.0982 24.664 17.0591C24.6903 16.9 24.7166 16.7409 24.7437 16.5769Z" fill="var(--fill-0, #A4D6DE)"/>
<path id="Vector_8" d="M36.0373 16.5769C36.7104 16.5769 37.3835 16.5769 38.0769 16.5769C38.0769 16.8618 38.0769 16.8618 38.0602 16.9618C38.0564 16.984 38.0527 17.0062 38.0489 17.029C38.0448 17.0517 38.0407 17.0745 38.0364 17.0979C38.0321 17.122 38.0278 17.146 38.0234 17.1708C37.9861 17.3702 37.9323 17.5576 37.861 17.748C37.8508 17.7773 37.8407 17.8066 37.8306 17.8359C37.6582 18.3212 37.3584 18.7406 37.0111 19.1255C36.9417 19.2029 36.875 19.282 36.8089 19.362C36.7693 19.4096 36.7294 19.4567 36.6889 19.5037C36.1902 20.0861 35.9312 20.6399 35.9937 21.4069C36.0336 21.7749 36.2174 22.1161 36.4452 22.4093C36.4726 22.4449 36.4726 22.4449 36.5005 22.4812C36.6024 22.6114 36.7098 22.736 36.8217 22.8585C37.5545 23.6667 38.0568 24.5904 38.0604 25.6771C38.0605 25.7038 38.0605 25.7038 38.0606 25.731C38.0608 26.1688 38.0154 26.6097 37.861 27.0247C37.8494 27.0561 37.8494 27.0561 37.8375 27.0881C37.64 27.5756 37.344 28.0103 36.987 28.4031C36.9116 28.4862 36.8388 28.571 36.7664 28.6564C36.724 28.7064 36.6814 28.7561 36.6385 28.8057C36.2046 29.3111 36.0085 29.762 35.9653 30.4231C35.2923 30.4231 34.6192 30.4231 33.9257 30.4231C33.9257 29.9132 33.9257 29.9132 33.9527 29.7601C33.9559 29.7413 33.959 29.7226 33.9623 29.7034C34.1192 28.8381 34.5745 28.1304 35.1695 27.478C35.699 26.897 36.0691 26.3069 36.0133 25.5092C35.9276 24.8733 35.5203 24.3868 35.0992 23.916C34.4589 23.1983 33.9505 22.3168 33.9257 21.3531C33.9252 21.334 33.9247 21.315 33.9242 21.2954C33.9006 20.2252 34.2443 19.2953 34.9703 18.4768C35.021 18.4193 35.0702 18.3606 35.1195 18.302C35.1854 18.2246 35.2536 18.1509 35.325 18.0781C35.7359 17.6442 35.9901 17.1641 36.0373 16.5769Z" fill="var(--fill-0, #A4D6DE)"/>
</g>
</svg>
