<svg preserveAspectRatio="none" width="100%" height="100%" overflow="visible" style="display: block;" viewBox="0 0 60 60" fill="none" xmlns="http://www.w3.org/2000/svg">
<g id="beach-chair_4753688 1">
<rect width="60" height="60" rx="30" fill="var(--fill-0, white)"/>
<path id="Vector" d="M45.2995 30.3603H45.0902V29.5731C45.0902 28.3498 44.0911 27.3578 42.8576 27.3578H26.782L22.9072 18.3828C22.4223 17.2592 21.1121 16.7377 19.9791 17.217C18.7768 17.7256 18.9693 17.6512 18.835 17.6843C18.5343 17.2765 17.9803 17.1125 17.4913 17.3195L14.7264 18.4888C14.1578 18.729 13.8941 19.3804 14.1369 19.9426L19.1852 31.6362L16.8731 41.6039C16.712 42.2976 17.2436 42.9601 17.9608 42.9601H19.2926C19.7482 42.9601 20.1584 42.6852 20.3287 42.2657L23.0509 35.5525H39.5772L42.2995 42.2657C42.4697 42.6852 42.88 42.9599 43.3355 42.9599H44.6674C45.3846 42.9599 45.9162 42.2976 45.755 41.6039L44.3513 35.5525H45.2995C45.9176 35.5525 46.4185 35.0568 46.4185 34.4448V31.4679C46.4185 30.856 45.9176 30.3603 45.2995 30.3603Z" fill="var(--fill-0, #E9FBFE)"/>
<path id="Vector_2" d="M45.6487 29.8429V29.5733C45.6487 28.0464 44.3968 26.8041 42.858 26.8041H33.8946L33.437 25.4592C33.0537 24.3327 31.9911 23.5758 30.793 23.5758H24.2352C23.927 23.5758 23.6771 23.8238 23.6771 24.1297C23.6771 24.4355 23.927 24.6835 24.2352 24.6835H25.0202L26.269 27.5761C26.3569 27.7798 26.5587 27.9118 26.782 27.9118H30.7437C31.0519 27.9118 31.3018 27.6639 31.3018 27.358C31.3018 27.0521 31.0519 26.8042 30.7437 26.8042H27.15L26.2346 24.6836H30.793C31.512 24.6836 32.1494 25.1377 32.3794 25.8136L33.738 29.8066H25.0744C24.8508 29.8066 24.6494 29.6748 24.5614 29.4708L19.6005 17.9796L20.1984 17.7266C21.0463 17.3679 22.0313 17.7601 22.3942 18.6008L23.8917 22.0695C23.9824 22.2796 24.1884 22.4054 24.4049 22.4054C24.8037 22.4054 25.0757 21.9993 24.9177 21.6334L23.4203 18.1646C22.8154 16.7636 21.1738 16.1099 19.7607 16.7078L18.9766 17.0393C18.5096 16.6716 17.8585 16.562 17.2727 16.8098L14.5076 17.9796C13.6602 18.3381 13.2574 19.3115 13.6243 20.1611L18.6005 31.688L16.3293 41.4798C16.0879 42.5199 16.8835 43.514 17.961 43.514H19.2929C19.9799 43.514 20.5896 43.1054 20.8462 42.4728L22.5123 38.3648C22.6274 38.081 22.4889 37.7584 22.2029 37.6442C21.9169 37.5301 21.5918 37.6674 21.4768 37.9513L19.8106 42.0593C19.7251 42.2701 19.5218 42.4063 19.2929 42.4063H17.961C17.6018 42.4063 17.3366 42.0749 17.4171 41.7283L19.3456 33.4139L19.7833 34.4277C20.2236 35.4475 21.2304 36.1065 22.3484 36.1065H39.2L41.7822 42.4729C42.0387 43.1054 42.6484 43.5141 43.3355 43.5141H44.6674C45.7429 43.5141 46.5408 42.5218 46.2992 41.4799L45.5481 38.242C45.479 37.9439 45.1799 37.7578 44.8789 37.8266C44.5785 37.8952 44.3911 38.1925 44.4603 38.4905L45.2114 41.7283C45.292 42.0757 45.0259 42.4064 44.6674 42.4064H43.3355C43.1065 42.4064 42.9033 42.2702 42.8178 42.0594L40.4034 36.1065H45.2999C46.2246 36.1065 46.9768 35.3611 46.9768 34.445V31.4681C46.9767 30.6704 46.4064 30.0024 45.6487 29.8429ZM45.8605 34.4449C45.8605 34.7503 45.609 34.9988 45.2998 34.9988H22.3485C21.6777 34.9988 21.0736 34.6034 20.8094 33.9915L14.6503 19.7249C14.5292 19.4443 14.6602 19.1192 14.9454 18.9985L17.7105 17.8288C17.9951 17.7083 18.3256 17.8393 18.447 18.1207L23.5353 29.907C23.7995 30.5189 24.4036 30.9143 25.0744 30.9143C35.1031 30.9143 34.5595 30.9304 34.6942 30.8852C34.9353 30.8048 35.0994 30.5633 35.0701 30.2994C35.0606 30.2147 35.1104 30.3773 34.2715 27.9119H42.858C43.7812 27.9119 44.5324 28.6573 44.5324 29.5734V29.8067H37.4683C37.1601 29.8067 36.9101 30.0546 36.9101 30.3605C36.9101 30.6664 37.1601 30.9143 37.4683 30.9143H45.2998C45.609 30.9143 45.8605 31.1628 45.8605 31.4682V34.4449Z" fill="var(--fill-0, #A4D6DE)"/>
<path id="Vector (Stroke)" d="M44.3 29.5733C44.3 28.7847 43.6526 28.1427 42.8579 28.1427H34.5953C34.9441 29.1673 35.1169 29.6708 35.2026 29.9253C35.2487 30.0623 35.2716 30.1335 35.2834 30.1759C35.2913 30.2044 35.2957 30.2259 35.298 30.2417L35.3011 30.2741C35.3426 30.6482 35.1107 30.9892 34.7683 31.1035C34.7687 31.1034 34.7751 31.1012 34.7615 31.1066C34.7475 31.1123 34.7288 31.1192 34.7038 31.1247C34.6635 31.1335 34.6153 31.1371 34.5535 31.1395C34.4233 31.1446 34.1598 31.1468 33.5946 31.1476C32.4599 31.1493 30.0878 31.1449 25.0745 31.1449C24.3106 31.1449 23.6225 30.6946 23.3217 29.9979L18.2331 18.2115C18.1624 18.0478 17.9687 17.9704 17.8016 18.0411L15.0368 19.2107C14.8696 19.2815 14.7938 19.471 14.8642 19.634L21.0233 33.9007L21.0692 33.9971C21.3159 34.4687 21.8067 34.7678 22.3483 34.7678H45.2998C45.4814 34.7678 45.6276 34.622 45.6277 34.4451V31.4681C45.6277 31.2912 45.4814 31.1449 45.2998 31.1449H37.4682C37.0316 31.1449 36.6775 30.7939 36.6774 30.3607C36.6774 29.9274 37.0316 29.576 37.4682 29.576H44.3V29.5733ZM23.4443 24.1295C23.4444 23.6963 23.7985 23.3453 24.2351 23.3452H30.793C32.0908 23.3452 33.2421 24.165 33.6573 25.3852L34.0616 26.5733H42.8579C44.5251 26.5733 45.8812 27.9189 45.8812 29.5733V29.6661C46.6503 29.9103 47.2092 30.6248 47.2093 31.4681V34.4451C47.2092 35.4889 46.3525 36.3372 45.2998 36.3372H40.7476L43.0337 41.9731C43.0838 42.0965 43.2013 42.1754 43.3353 42.1754H44.6675C44.8766 42.1754 45.0315 41.9827 44.9845 41.7802L44.2337 38.5422C44.1358 38.12 44.4013 37.6987 44.8269 37.6015C45.253 37.5043 45.677 37.768 45.7749 38.1902L46.5257 41.4281L46.5479 41.539C46.7438 42.6842 45.8541 43.7448 44.6675 43.7449H43.3353C42.5534 43.7448 41.8585 43.2788 41.5666 42.559L39.043 36.3372H22.3483C21.1373 36.3372 20.0463 35.6232 19.5694 34.5186L19.4122 34.1544L17.6435 41.7802C17.5967 41.9823 17.7516 42.1754 17.961 42.1754H19.2928C19.4268 42.1754 19.5447 42.0966 19.5948 41.9731L21.2609 37.8652C21.4239 37.463 21.8846 37.2686 22.2897 37.4302C22.6948 37.592 22.8911 38.0491 22.728 38.4511L21.0619 42.559C20.77 43.2789 20.0747 43.7449 19.2928 43.7449H17.961C16.7339 43.7449 15.828 42.6126 16.1028 41.4281L18.3566 31.7097L13.4107 20.2519C12.9927 19.2839 13.4518 18.1751 14.4163 17.7671L17.1816 16.5975C17.8025 16.3348 18.4868 16.4253 19.0066 16.7755L19.6693 16.4956C21.2004 15.8478 22.9787 16.5556 23.6342 18.0736L25.1313 21.5423C25.3551 22.0611 24.97 22.6362 24.405 22.6362C24.0987 22.6362 23.8064 22.4581 23.6778 22.1603L22.1802 18.6915C21.8678 17.968 21.0195 17.6301 20.2898 17.9388L19.9055 18.1011L24.7751 29.3799C24.8266 29.499 24.9439 29.576 25.0745 29.576H33.4143L32.1589 25.8873C31.9608 25.3053 31.4121 24.9142 30.793 24.9142H26.587L27.3033 26.5733H30.7435C31.1802 26.5733 31.5343 26.9247 31.5343 27.358C31.5343 27.7913 31.1802 28.1427 30.7435 28.1427H26.7819C26.4656 28.1426 26.1797 27.9553 26.0551 27.6667L24.8669 24.9142H24.2351C23.7985 24.9141 23.4443 24.5627 23.4443 24.1295ZM44.7652 30.0375H37.4682C37.2884 30.0376 37.1425 30.1823 37.1425 30.3607C37.1426 30.539 37.2885 30.6834 37.4682 30.6834H45.2998C45.7363 30.6834 46.0928 31.0343 46.0928 31.4681V34.4451C46.0927 34.8788 45.7363 35.2294 45.2998 35.2294H22.3483C21.5845 35.2293 20.8963 34.7789 20.5955 34.0823L14.4368 19.8156C14.2649 19.4175 14.451 18.9568 14.8542 18.7862L17.6194 17.6165C18.0214 17.4465 18.4887 17.631 18.661 18.0299L23.7491 29.8162C23.9767 30.3432 24.4967 30.6834 25.0745 30.6834C30.0894 30.6834 32.4598 30.6877 33.5942 30.6861C34.1632 30.6853 34.4161 30.6826 34.5353 30.678C34.5715 30.6766 34.5901 30.6748 34.5985 30.6739C34.6042 30.6717 34.6116 30.6695 34.6198 30.6667L34.6203 30.6663C34.76 30.6196 34.8557 30.4782 34.8387 30.3246C34.8355 30.2955 34.8387 30.3114 34.8351 30.2985C34.8273 30.2704 34.8084 30.212 34.7611 30.0713C34.6676 29.7936 34.4707 29.219 34.0511 27.9858L33.9476 27.6812H42.8579C43.9095 27.6812 44.7651 28.5298 44.7652 29.5733V30.0375ZM23.9094 24.1295C23.9094 24.3078 24.0553 24.4526 24.2351 24.4526H25.1735L26.4825 27.4851C26.5338 27.6038 26.6516 27.6811 26.7819 27.6812H30.7435C30.9233 27.6812 31.0692 27.5364 31.0692 27.358C31.0692 27.1796 30.9233 27.0348 30.7435 27.0348H26.9967L26.0206 24.7745L25.8821 24.4526H30.793C31.6118 24.4526 32.3381 24.9703 32.5999 25.7399L34.062 30.0375H25.0745C24.7578 30.0375 24.4724 29.8504 24.3477 29.5616L19.295 17.8581L19.5094 17.7671L20.1072 17.5142C21.0731 17.1056 22.1947 17.5522 22.6081 18.5099L24.1056 21.9786C24.1584 22.1008 24.2782 22.1747 24.405 22.1747C24.6372 22.1747 24.7957 21.9375 24.7038 21.7244L23.2063 18.2557C22.6519 16.9716 21.147 16.3722 19.8519 16.9202L19.0679 17.2515L18.9403 17.3056L18.8322 17.2199C18.4291 16.9025 17.8677 16.8088 17.3637 17.022L14.5989 18.1917C13.8687 18.5006 13.5224 19.3391 13.8381 20.0703L18.8145 31.597L18.844 31.6664L18.8272 31.7399L16.5557 41.5318C16.348 42.4274 17.0333 43.2833 17.961 43.2833H19.2928C19.8849 43.2833 20.4093 42.9319 20.6304 42.3868L22.2965 38.2785C22.3636 38.113 22.2829 37.9251 22.1162 37.8584C21.9493 37.7918 21.7595 37.8719 21.6924 38.0374L20.0263 42.1452C19.9053 42.4433 19.6166 42.637 19.2928 42.637H17.961C17.4522 42.637 17.0763 42.1675 17.1902 41.6765L19.2787 32.6733L19.9968 34.3369C20.4005 35.2718 21.3234 35.8757 22.3483 35.8757H39.3568L39.4159 36.0204L41.9981 42.3868C42.2192 42.9318 42.7433 43.2832 43.3353 43.2833H44.6675C45.5936 43.2832 46.2803 42.4289 46.0724 41.5318L45.3216 38.2938C45.2813 38.1199 45.1067 38.0112 44.9309 38.0513C44.7559 38.0914 44.6468 38.2647 44.687 38.4385L45.4378 41.6765C45.552 42.1687 45.1752 42.6369 44.6675 42.637H43.3353C43.0115 42.6369 42.7232 42.4437 42.6022 42.1457L40.059 35.8757H45.2998C46.0963 35.8757 46.7441 35.2334 46.7442 34.4451V31.4681C46.7441 30.7821 46.2534 30.2061 45.6005 30.0686L45.416 30.0299V29.5733C45.416 28.1738 44.2682 27.0348 42.8579 27.0348H33.7277L33.6741 26.878L33.2167 25.533C32.8654 24.5004 31.8914 23.8068 30.793 23.8068H24.2351C24.0554 23.8068 23.9095 23.9512 23.9094 24.1295Z" fill="var(--fill-0, #A4D6DE)"/>
</g>
</svg>
