<svg preserveAspectRatio="none" width="100%" height="100%" overflow="visible" style="display: block;" viewBox="0 0 60 60" fill="none" xmlns="http://www.w3.org/2000/svg">
<g id="Group 5885">
<circle id="Ellipse 1" cx="30" cy="30" r="30" fill="var(--fill-0, white)"/>
<g id="Group 5888">
<circle id="Ellipse 191" cx="40.8461" cy="28.1539" r="6.92308" fill="var(--fill-0, #E9FBFE)"/>
<circle id="Ellipse 192" cx="19.1538" cy="28.1539" r="6.92308" fill="var(--fill-0, #E9FBFE)"/>
<path id="Vector (Stroke)" d="M14.6861 45.3035C18.3389 43.0954 21.6039 42.5415 24.533 42.7781C27.0806 42.9839 29.3585 43.7877 31.3772 44.5747L33.0124 45.2192C34.8165 45.9252 36.4264 46.4942 38.1001 46.6295C39.9862 46.782 41.9836 46.3832 44.4242 44.9064C44.6423 44.7745 44.9264 44.8443 45.0584 45.0624C45.1903 45.2804 45.1205 45.5646 44.9024 45.6965C42.3164 47.2613 40.1276 47.7198 38.0258 47.5499C35.9506 47.3821 33.9899 46.6006 31.887 45.7673C29.6505 44.8823 27.2133 43.921 24.4586 43.6985C21.7214 43.4773 18.6499 43.9859 15.1639 46.0932C14.9458 46.225 14.662 46.1552 14.5301 45.9372C14.3983 45.7191 14.4681 45.4354 14.6861 45.3035ZM14.6861 38.3975C18.339 36.1874 21.6058 35.6345 24.5357 35.8717C27.0841 36.0781 29.3621 36.8825 31.3785 37.6692L32.2268 38.0032C34.358 38.8478 36.1874 39.5694 38.1001 39.724C39.9862 39.8764 41.9836 39.4772 44.4242 38.0005C44.6423 37.8685 44.9264 37.9383 45.0584 38.1564C45.1903 38.3744 45.1203 38.6581 44.9024 38.7901C42.3164 40.3549 40.1276 40.8138 38.0258 40.6439C35.9506 40.4762 33.9895 39.6948 31.8865 38.8613C29.6536 37.9771 27.2162 37.0147 24.4609 36.7916C21.7228 36.57 18.6497 37.0786 15.1639 39.1877C14.9458 39.3195 14.6621 39.2496 14.5301 39.0317C14.3982 38.8136 14.468 38.5295 14.6861 38.3975Z" fill="var(--fill-0, #A4D6DE)"/>
<circle id="Ellipse 191_2" cx="29.7692" cy="18.4615" r="6.92308" fill="var(--fill-0, #E9FBFE)"/>
<g id="Vector">
<path d="M19.2588 22.2973L19.2609 23.9853ZM19.2609 23.9853L19.2664 28.2054ZM19.2609 23.9853C19.8046 23.9869 20.338 23.8416 20.8033 23.5653ZM19.2609 23.9853C18.7172 23.9855 18.1834 23.8389 17.7174 23.5613ZM19.2664 28.2054L19.2718 32.4254ZM19.2664 28.2054L22.9674 26.1003ZM19.2664 28.2054L15.5653 30.3105ZM19.2664 28.2054L15.5599 26.0908ZM19.2664 28.2054L22.9728 30.32ZM19.2718 32.4254L19.274 34.1135ZM19.2718 32.4254C18.7282 32.4249 18.195 32.5699 17.7294 32.8456ZM19.2718 32.4254C19.8154 32.4262 20.3489 32.5727 20.8153 32.8495ZM24.4482 25.2581L22.9674 26.1003ZM22.9674 26.1003C23.2397 26.5653 23.635 26.9486 24.1107 27.2094ZM22.9674 26.1003C22.695 25.6354 22.5558 25.1062 22.5647 24.5698ZM15.5653 30.3105L14.0845 31.1528ZM15.5653 30.3105C15.293 29.8456 14.8978 29.4622 14.422 29.2014ZM15.5653 30.3105C15.8377 30.7755 15.977 31.3046 15.9681 31.841ZM14.0769 25.2447L15.5599 26.0908ZM15.5599 26.0908C15.2887 26.555 14.8945 26.9374 14.4194 27.1969ZM15.5599 26.0908C15.8311 25.6265 15.969 25.0977 15.9587 24.5613ZM22.9728 30.32L24.4558 31.1662ZM22.9728 30.32C23.244 29.8558 23.6382 29.4735 24.1133 29.2139ZM22.9728 30.32C22.7017 30.7843 22.5638 31.3131 22.574 31.8495Z" fill="var(--fill-0, #E9FBFE)"/>
<path d="M45.8199 25.2446L44.3591 26.0905ZM44.3591 26.0905L40.7071 28.2053ZM44.3591 26.0905C44.6298 26.5622 45.0222 26.9515 45.4942 27.2163ZM44.3591 26.0905C44.0873 25.6197 43.9472 25.0842 43.9547 24.5418ZM40.7071 28.2053L37.0551 30.32ZM40.7071 28.2053L44.3808 30.3579ZM40.7071 28.2053L37.0337 26.0526ZM40.7071 28.2053L40.6854 23.938ZM40.7071 28.2053L40.7291 32.4725ZM37.0551 30.32L35.5943 31.1659ZM37.0551 30.32C36.7842 29.8489 36.3917 29.4598 35.9204 29.1943ZM37.0551 30.32C37.3264 30.7911 37.4662 31.3265 37.4598 31.8687ZM45.8507 31.2192L44.3808 30.3579ZM44.3808 30.3579C44.1142 30.8262 43.98 31.3602 43.992 31.9026ZM44.3808 30.3579C44.6473 29.8895 45.0359 29.5044 45.5047 29.2439ZM37.0337 26.0526L35.5638 25.1913ZM37.0337 26.0526C37.3 25.5843 37.4345 25.0503 37.4226 24.5079ZM37.0337 26.0526C36.7672 26.521 36.3787 26.9062 35.9095 27.1667ZM40.6765 22.2306L40.6854 23.938ZM40.6854 23.938C40.1476 23.9353 39.6196 23.7851 39.1571 23.5034ZM40.6854 23.938C41.2232 23.9407 41.7499 23.7958 42.2093 23.5187ZM40.7291 32.4725L40.738 34.1798ZM40.7291 32.4725C41.2666 32.4753 41.7949 32.6254 42.2574 32.9072ZM40.7291 32.4725C40.1913 32.4698 39.6646 32.6148 39.2052 32.8919Z" fill="var(--fill-0, #E9FBFE)"/>
<path d="M34.998 15.4693L33.5427 16.3087ZM33.5427 16.3087L29.9052 18.407ZM33.5427 16.3087C33.8134 16.7785 34.2053 17.1665 34.6764 17.4308ZM33.5427 16.3087C33.2709 15.8397 33.1306 15.3066 33.137 14.7669ZM29.9052 18.407L26.2677 20.5054ZM29.9052 18.407L33.5714 20.5552ZM29.9052 18.407L26.2391 16.2589ZM29.9052 18.407L29.8763 14.1607ZM29.9052 18.407L29.9341 22.6534ZM26.2677 20.5054L24.8126 21.3448ZM26.2677 20.5054C25.9965 20.0361 25.6047 19.6482 25.1342 19.3833ZM26.2677 20.5054C26.5388 20.9747 26.6792 21.5076 26.6736 22.0472ZM35.0383 21.4148L33.5714 20.5552ZM33.5714 20.5552C33.3065 21.0208 33.1734 21.552 33.1864 22.0917ZM33.5714 20.5552C33.8362 20.0896 34.2231 19.7069 34.6903 19.4485ZM26.2391 16.2589L24.7722 15.3993ZM26.2391 16.2589C26.504 15.7932 26.6371 15.2621 26.6242 14.7224ZM26.2391 16.2589C25.9742 16.7245 25.5873 17.1071 25.1202 17.3656ZM29.8649 12.4616L29.8763 14.1607ZM29.8763 14.1607C29.3404 14.1571 28.8134 14.0067 28.352 13.7256ZM29.8763 14.1607C30.4124 14.1642 30.9374 14.0209 31.3952 13.7459ZM29.9341 22.6534L29.9458 24.3525ZM29.9341 22.6534C30.4702 22.657 30.9972 22.8074 31.4586 23.0884ZM29.9341 22.6534C29.3979 22.6498 28.873 22.7932 28.4155 23.0682Z" fill="var(--fill-0, #E9FBFE)"/>
</g>
<path id="Vector (Stroke)_2" d="M40.6739 21.769C40.9288 21.7677 41.1368 21.9734 41.1382 22.2283L41.1445 23.4349C41.4356 23.3816 41.7159 23.2773 41.9711 23.1234C42.1893 22.9919 42.4727 23.0622 42.6044 23.2803C42.736 23.4985 42.6658 23.7823 42.4475 23.914C42.0491 24.1543 41.6071 24.3085 41.149 24.3697L41.1648 27.4071L43.7555 25.9066C43.5769 25.4733 43.4867 25.0069 43.4932 24.5355C43.4967 24.2807 43.7062 24.0768 43.961 24.0803C44.2159 24.0838 44.4198 24.2933 44.4163 24.5482C44.4121 24.8518 44.4635 25.153 44.565 25.4379L45.5886 24.8452C45.8091 24.7175 46.0914 24.7928 46.2191 25.0133C46.3469 25.2339 46.2716 25.5161 46.051 25.6439L45.0252 26.2379C45.2207 26.4693 45.4554 26.6654 45.7202 26.8139C45.9423 26.9387 46.0216 27.22 45.8969 27.4422C45.7721 27.6645 45.4904 27.7437 45.2681 27.6189C44.8582 27.3889 44.5009 27.0775 44.2161 26.7062L41.624 28.2076L44.2382 29.7391C44.5198 29.3723 44.8744 29.0661 45.2807 28.8404C45.5035 28.7167 45.7844 28.797 45.9081 29.0198C46.0319 29.2426 45.9516 29.5234 45.7288 29.6472C45.4676 29.7922 45.2367 29.9842 45.0446 30.2115L46.0839 30.8208C46.3039 30.9497 46.3778 31.2328 46.2489 31.4527C46.12 31.6725 45.8373 31.7461 45.6174 31.6173L44.5893 31.0146C44.4935 31.2948 44.4466 31.592 44.4532 31.8927C44.4587 32.1474 44.2568 32.3585 44.002 32.3641C43.7473 32.3697 43.5363 32.1677 43.5306 31.9129C43.5202 31.4412 43.6057 30.9743 43.7807 30.5409L41.1729 29.0125L41.1882 32.0441C41.6496 32.109 42.0954 32.2682 42.4975 32.5133C42.7151 32.646 42.7843 32.9298 42.6517 33.1475C42.519 33.3651 42.2347 33.4338 42.0171 33.3012C41.7614 33.1454 41.4819 33.0384 41.1927 32.9816L41.1995 34.1774C41.2008 34.4323 40.9951 34.6403 40.7402 34.6416C40.4854 34.6428 40.2777 34.4371 40.2764 34.1823L40.2696 32.9753C39.9786 33.0286 39.6986 33.1333 39.4434 33.2872C39.2252 33.4187 38.9418 33.3485 38.8102 33.1303C38.6785 32.9121 38.7488 32.6283 38.967 32.4966C39.3653 32.2565 39.8071 32.1017 40.2651 32.0405L40.2493 29.0031L37.6581 30.5035C37.8366 30.9369 37.9269 31.4032 37.9214 31.8742C37.9184 32.129 37.7093 32.3333 37.4544 32.3303C37.1995 32.3273 36.9953 32.1182 36.9983 31.8634C37.0019 31.5592 36.9501 31.2579 36.8486 30.9727L35.8255 31.5654C35.605 31.693 35.3227 31.6178 35.1949 31.3973C35.0672 31.1767 35.1425 30.894 35.3631 30.7663L36.3885 30.1723C36.1929 29.9412 35.9584 29.7452 35.6939 29.5962C35.4719 29.4712 35.3932 29.19 35.5181 28.9679C35.6432 28.7458 35.9248 28.667 36.1469 28.7921C36.5557 29.0225 36.9128 29.3333 37.1975 29.704L39.7905 28.2026L37.1759 26.6706C36.8942 27.0375 36.5401 27.3444 36.1334 27.5702C35.9106 27.6938 35.6297 27.6136 35.5059 27.3908C35.3822 27.168 35.4625 26.8867 35.6853 26.763C35.9468 26.6178 36.1778 26.4257 36.37 26.1982L35.3306 25.5893C35.1107 25.4605 35.0368 25.1778 35.1657 24.9579C35.2945 24.7381 35.5772 24.6641 35.7971 24.7929L36.8243 25.3946C36.9199 25.1146 36.9679 24.8182 36.9613 24.518C36.9558 24.2632 37.1577 24.0521 37.4125 24.0465C37.6673 24.0409 37.8783 24.2429 37.884 24.4977C37.8943 24.9693 37.8081 25.4357 37.6334 25.8688L40.2412 27.3972L40.2259 24.3661C39.7645 24.3012 39.319 24.1426 38.917 23.8978C38.6993 23.7652 38.6303 23.4808 38.7629 23.2631C38.8955 23.0455 39.1794 22.9769 39.397 23.1095C39.6528 23.2652 39.9322 23.3717 40.2214 23.4286L40.2151 22.2332C40.2138 21.9784 40.4191 21.7705 40.6739 21.769ZM19.2584 21.8357C19.5132 21.8355 19.72 22.042 19.7203 22.2968L19.7217 23.4822C20.0197 23.4286 20.3067 23.3235 20.5677 23.1685C20.7869 23.0384 21.0699 23.1107 21.2001 23.3299C21.3301 23.549 21.2582 23.8321 21.0392 23.9622C20.6351 24.2021 20.1869 24.356 19.723 24.417L19.7267 27.4125L22.3607 25.9143C22.1838 25.487 22.0956 25.027 22.1033 24.5621C22.1076 24.3073 22.3177 24.104 22.5725 24.1082C22.8273 24.1126 23.0301 24.3227 23.0259 24.5774C23.021 24.8762 23.0721 25.1723 23.1729 25.4523L24.2199 24.8569C24.4415 24.7309 24.7235 24.8084 24.8495 25.03C24.9755 25.2515 24.8979 25.5332 24.6765 25.6592L23.6407 26.2478C23.8354 26.4709 24.069 26.66 24.3326 26.8045C24.5561 26.927 24.6381 27.2079 24.5156 27.4314C24.393 27.6548 24.1125 27.7364 23.8891 27.614C23.4752 27.3871 23.1136 27.0798 22.8258 26.7116L20.1986 28.2058L22.8312 29.708C23.1181 29.3408 23.4791 29.0345 23.8922 28.8088C24.1159 28.6867 24.3961 28.7691 24.5183 28.9927C24.6405 29.2164 24.5581 29.497 24.3344 29.6192C24.0718 29.7627 23.8394 29.9508 23.6457 30.1727L24.6846 30.7654C24.9059 30.8917 24.9831 31.1737 24.8568 31.3951C24.7304 31.6164 24.4485 31.6935 24.2271 31.5672L23.1787 30.9687C23.0792 31.2476 23.0297 31.5428 23.0354 31.8408C23.0402 32.0956 22.8377 32.306 22.5829 32.3109C22.328 32.3158 22.1177 32.1132 22.1128 31.8584C22.1039 31.3931 22.1908 30.9328 22.367 30.5053L19.7289 29.0008L19.7325 31.995C20.1969 32.0572 20.6458 32.212 21.0509 32.4524C21.2701 32.5826 21.3423 32.8661 21.2122 33.0853C21.0821 33.3043 20.799 33.3766 20.5799 33.2466C20.3184 33.0914 20.0315 32.9854 19.7339 32.9307L19.7357 34.1129C19.736 34.3678 19.5295 34.5746 19.2746 34.5749C19.0197 34.5752 18.813 34.3691 18.8126 34.1143L18.8108 32.9289C18.5127 32.9827 18.2256 33.0883 17.9643 33.243C17.745 33.3727 17.4622 33.3 17.3324 33.0808C17.2026 32.8614 17.2749 32.5783 17.4942 32.4484C17.8983 32.2091 18.3461 32.0549 18.8094 31.9936L18.8058 28.9981L16.1718 30.4963C16.3488 30.9236 16.4373 31.3835 16.4296 31.8485C16.4254 32.1033 16.2153 32.3066 15.9604 32.3024C15.7056 32.2981 15.5023 32.088 15.5065 31.8332C15.5115 31.5343 15.4605 31.2384 15.3596 30.9583L14.3126 31.5542C14.0911 31.6801 13.8094 31.6025 13.6834 31.3811C13.5574 31.1595 13.6349 30.8775 13.8565 30.7514L14.8913 30.1628C14.6967 29.94 14.4637 29.7505 14.2004 29.6061C13.9768 29.4836 13.8948 29.2032 14.0174 28.9796C14.1399 28.7561 14.4203 28.6741 14.6439 28.7966C15.0576 29.0234 15.4189 29.3309 15.7067 29.699L18.3335 28.2049L15.7008 26.7026C15.4139 27.0697 15.0537 27.3762 14.6407 27.6018C14.417 27.724 14.1364 27.642 14.0142 27.4183C13.892 27.1947 13.9744 26.914 14.1981 26.7918C14.4608 26.6483 14.693 26.4599 14.8868 26.2379L13.8483 25.6457C13.6269 25.5193 13.5499 25.2374 13.6762 25.016C13.8025 24.7947 14.084 24.7176 14.3054 24.8438L15.3538 25.4415C15.4531 25.1628 15.5028 24.8681 15.4971 24.5702C15.4922 24.3154 15.6952 24.1046 15.9501 24.0997C16.2048 24.0949 16.4153 24.2979 16.4202 24.5527C16.4291 25.0177 16.3415 25.4776 16.1655 25.9048L18.8036 27.4102L18.8 24.4161C18.3352 24.3541 17.8861 24.1989 17.4812 23.9577C17.2623 23.8273 17.1905 23.5443 17.3207 23.3253C17.4511 23.1063 17.7345 23.0345 17.9535 23.1649C18.2146 23.3204 18.5012 23.4258 18.7986 23.4804L18.7973 22.2977C18.7971 22.0429 19.0035 21.836 19.2584 21.8357ZM29.862 12.0001C30.1168 11.9985 30.3245 12.2037 30.3263 12.4585L30.3344 13.6587C30.6244 13.6062 30.9034 13.503 31.1574 13.3504C31.3759 13.2192 31.6594 13.2898 31.7907 13.5082C31.9219 13.7267 31.8514 14.0102 31.6329 14.1415C31.2364 14.3796 30.7965 14.5322 30.3407 14.5926L30.3614 17.6107L32.9382 16.1242C32.7602 15.6934 32.6699 15.2298 32.6754 14.7616C32.6784 14.5068 32.8875 14.3025 33.1424 14.3055C33.3972 14.3085 33.6015 14.5176 33.5985 14.7725C33.5949 15.0743 33.6466 15.3738 33.7481 15.6572L34.7672 15.0695C34.988 14.9421 35.2704 15.0182 35.3978 15.239C35.525 15.4597 35.4494 15.7417 35.2288 15.8691L34.2101 16.4564C34.4051 16.6859 34.6389 16.8805 34.9024 17.0283C35.1246 17.1531 35.2037 17.4344 35.0791 17.6566C34.9544 17.8789 34.6727 17.958 34.4504 17.8333C34.0412 17.6037 33.6843 17.2934 33.3997 16.9233L30.8234 18.4098L33.429 19.9368C33.7093 19.5725 34.0623 19.2687 34.467 19.0448C34.6901 18.9215 34.9706 19.0022 35.094 19.2251C35.2174 19.4482 35.1368 19.7292 34.9137 19.8525C34.6547 19.9958 34.4253 20.1848 34.2349 20.4092L35.2716 21.0168C35.4915 21.1456 35.5654 21.4283 35.4365 21.6482C35.3077 21.868 35.025 21.9419 34.8051 21.8132L33.7806 21.2128C33.6866 21.4898 33.6404 21.7832 33.6476 22.0805C33.6538 22.3352 33.4525 22.547 33.1978 22.5533C32.943 22.5594 32.7312 22.3578 32.725 22.103C32.7136 21.6338 32.7981 21.1695 32.9715 20.7387L30.3722 19.2152L30.3925 22.2256C30.8529 22.2909 31.2976 22.45 31.6987 22.6943C31.9163 22.8269 31.9854 23.1108 31.8529 23.3285C31.7202 23.5462 31.4359 23.6153 31.2182 23.4826C30.9639 23.3277 30.6863 23.2207 30.3988 23.1635L30.4074 24.3494C30.4091 24.6042 30.2039 24.8123 29.949 24.8141C29.6941 24.8158 29.4861 24.6106 29.4843 24.3557L29.4757 23.155C29.1858 23.2075 28.907 23.3112 28.6532 23.4637C28.4347 23.595 28.1512 23.5244 28.0199 23.306C27.8886 23.0875 27.9593 22.804 28.1777 22.6727C28.574 22.4346 29.0137 22.2815 29.4694 22.2211L29.4487 19.203L26.8719 20.6895C27.0498 21.1204 27.14 21.5839 27.1352 22.0521C27.1325 22.3069 26.9235 22.5113 26.6687 22.5086C26.4139 22.5059 26.2095 22.2974 26.2121 22.0426C26.2152 21.7404 26.1631 21.4407 26.0615 21.1569L25.0434 21.7447C24.8226 21.872 24.5402 21.796 24.4128 21.5752C24.2856 21.3545 24.3612 21.0725 24.5818 20.9451L25.5995 20.3578C25.4045 20.1284 25.171 19.9337 24.9077 19.7854C24.6856 19.6603 24.6068 19.3787 24.7319 19.1566C24.857 18.9346 25.1386 18.8562 25.3607 18.9813C25.7688 19.2112 26.1254 19.521 26.4099 19.8904L28.9867 18.4035L26.3806 16.8764C26.1003 17.2408 25.7483 17.5454 25.3435 17.7693C25.1205 17.8927 24.84 17.812 24.7166 17.589C24.5932 17.366 24.6738 17.085 24.8969 16.9616C25.1558 16.8183 25.3843 16.6285 25.5748 16.4041L24.539 15.7974C24.3191 15.6685 24.2452 15.3859 24.374 15.1659C24.5029 14.9461 24.7856 14.8722 25.0055 15.001L26.0295 15.6009C26.1235 15.3239 26.17 15.0305 26.1629 14.7332C26.1569 14.4785 26.3584 14.267 26.6132 14.2609C26.868 14.2548 27.0794 14.4564 27.0856 14.7112C27.0968 15.1802 27.0119 15.6442 26.8386 16.075L29.4379 17.598L29.4176 14.5881C28.9575 14.5228 28.5129 14.3641 28.1119 14.1198C27.8943 13.9872 27.8253 13.7033 27.9577 13.4857C28.0903 13.268 28.3746 13.1989 28.5923 13.3315C28.8466 13.4864 29.1241 13.593 29.4113 13.6502L29.4032 12.4648C29.4015 12.2099 29.6071 12.0018 29.862 12.0001Z" fill="var(--fill-0, #A4D6DE)"/>
</g>
</g>
</svg>
