<svg width="60" height="60" viewBox="0 0 60 60" fill="none" xmlns="http://www.w3.org/2000/svg">
  <circle cx="30" cy="30" r="30" fill="#A4D6DE"/>
  <path d="M18 22h18.5c4.7 0 8.5 3.8 8.5 8.5v1.3c0 2.3-1.9 4.2-4.2 4.2H30.1l-5.4 8.8c-.7 1.2-2.3 1.6-3.5.8l-2.2-1.3c-1.2-.7-1.5-2.3-.8-3.5l5.8-9.3H18c-1.7 0-3-1.3-3-3V25c0-1.7 1.3-3 3-3Z" stroke="#111111" stroke-width="3" stroke-linejoin="round"/>
  <path d="M40.5 26.5h4.8c2.6 0 4.7 2.1 4.7 4.7v1.6c0 2.6-2.1 4.7-4.7 4.7h-5.8" stroke="#111111" stroke-width="3" stroke-linecap="round"/>
  <path d="M23 22v-5h9v5" stroke="#111111" stroke-width="3" stroke-linejoin="round"/>
</svg>
