<svg width="359" height="63" viewBox="0 0 359 63" fill="none" xmlns="http://www.w3.org/2000/svg">
<g filter="url(#filter0_d_11_100)">
<path d="M327.117 12.8702C330.404 12.8702 333.463 13.8531 336.015 15.5435L327.847 29.9736H334.986L332.04 35.1683H336.072L339.013 29.9688H343.248C342.893 38.3924 335.484 45.3155 327.112 45.3155C326.064 45.3155 325.04 45.2109 324.048 45.021L331.462 31.9252H319.642L317.213 35.1588H325.044L320.088 43.7059C314.662 41.0801 310.91 35.5149 310.91 29.0905C310.91 25.5245 312.067 22.2244 314.026 19.5416H319.111L319.115 19.5511C319.115 19.4941 319.111 19.4466 319.111 19.3849C319.111 18.8816 319.111 16.8256 321.316 16.8256C323.223 16.8256 323.37 18.2786 323.37 18.8579C323.37 19.9357 322.635 20.6243 319.983 23.2738C318.176 25.0829 313.627 29.9785 313.627 29.9785H325.4L327.364 26.5073H322.36L325.286 23.5253C327.368 21.3506 328.379 19.6555 328.379 17.8891C328.379 16.987 328.122 15.9329 327.131 14.9357C326.069 13.8626 324.665 13.4542 323.432 13.2975C324.617 13.0221 325.851 12.8702 327.117 12.8702Z" fill="#FFFFFF"/>
<path d="M339.188 18.2928C341.228 20.5625 342.608 23.3688 343.116 26.5122H340.986L342.167 24.4228H338.14L336.964 26.5122H334.54L339.188 18.2928Z" fill="#FFFFFF"/>
<path fill-rule="evenodd" clip-rule="evenodd" d="M327.122 9.1C338.154 9.1 347.1 18.0553 347.1 29.0999C347.1 40.1445 338.154 49.1 327.122 49.1C316.089 49.1 307.144 40.1445 307.144 29.0999C307.144 18.0553 316.089 9.10004 327.122 9.1ZM327.122 11.2177C317.27 11.2178 309.259 19.2424 309.259 29.0999C309.259 38.9574 317.275 46.982 327.122 46.9821C336.968 46.9821 344.984 38.9574 344.984 29.0999C344.984 19.2424 336.968 11.2177 327.122 11.2177Z" fill="#FFFFFF"/>
<path d="M177.846 19.1804H184.372L192.673 39.0427H185.525L184.482 36.3932H177.585L176.57 39.0427H169.536L177.836 19.1804H177.846ZM182.859 31.716L181.057 26.925L179.255 31.716H182.855H182.859Z" fill="#FFFFFF"/>
<path d="M192.37 19.323H198.531L205.537 28.0267V19.323H212.063V39.0428H206.21L198.891 29.945V39.0428H192.365V19.323H192.37Z" fill="#FFFFFF"/>
<path d="M219.045 32.058L211.617 19.323H218.988L222.365 25.8044L225.771 19.323H233.061L225.633 31.9725V39.0428H219.05V32.058H219.045Z" fill="#FFFFFF"/>
<path d="M235.394 24.8975H229.598V19.3182H247.779V24.8975H241.982V39.0381H235.399V24.8975H235.394Z" fill="#FFFFFF"/>
<path d="M249.32 19.323H255.904V39.0428H249.32V19.323Z" fill="#FFFFFF"/>
<path d="M257.65 19.323H264.518L268.739 26.2555L272.961 19.323H279.829V39.0428H273.269V29.266L268.739 36.2793H268.625L264.096 29.266V39.0428H257.65V19.323Z" fill="#FFFFFF"/>
<path d="M281.512 19.323H298.312V24.7313H287.982V26.7304H297.606V31.4929H287.982V33.6344H298.45V39.0428H281.507V19.323H281.512Z" fill="#FFFFFF"/>
<path d="M299.707 21.9252C299.707 19.9024 301.011 19.1569 302.548 19.1569C304.085 19.1569 305.408 19.9024 305.408 21.9252C305.408 23.948 304.104 24.684 302.548 24.684C300.992 24.684 299.707 23.9385 299.707 21.9252ZM304.734 21.9252C304.734 20.382 303.743 19.8074 302.567 19.8074C301.39 19.8074 300.385 20.382 300.385 21.9252C300.385 23.4684 301.376 24.0335 302.567 24.0335C303.757 24.0335 304.734 23.4589 304.734 21.9252ZM302.239 22.5235V23.5064H301.234V20.3298H302.908C303.781 20.3298 304.075 20.8188 304.075 21.4409C304.075 21.7732 303.947 22.2006 303.591 22.381L304.141 23.5064H302.956L302.6 22.5235H302.235H302.239ZM302.823 21.2224H302.239V21.6355H302.823C302.965 21.626 302.994 21.5168 302.994 21.4314C302.994 21.3554 302.97 21.2272 302.823 21.2177V21.2224Z" fill="#FFFFFF"/>
<path d="M11.1 19.2518H17.9966L20.7808 28.72L23.9587 19.1996H29.641L32.8189 28.72L35.6032 19.2518H42.3859L35.9399 39.1141H30.2007L26.7382 29.3088L23.2757 39.1141H17.5365L11.1 19.2518Z" fill="#FFFFFF"/>
<path d="M40.8155 29.1665V29.1095C40.8155 23.3925 45.5159 18.8246 51.5919 18.8246C57.6679 18.8246 62.3162 23.3308 62.3162 29.0526V29.1095C62.3162 34.8265 57.6157 39.3944 51.5398 39.3944C45.4638 39.3944 40.8202 34.8883 40.8202 29.1665H40.8155ZM55.6711 29.1665V29.1095C55.6711 26.7734 54.0679 24.6603 51.535 24.6603C49.0022 24.6603 47.4559 26.7449 47.4559 29.0573V29.1143C47.4559 31.4505 49.0591 33.5682 51.5919 33.5682C54.1248 33.5682 55.6711 31.4837 55.6711 29.1713V29.1665Z" fill="#FFFFFF"/>
<path d="M62.9901 19.2519H72.614C76.105 19.2519 78.3248 20.1256 79.705 21.5074C80.8861 22.6897 81.5074 24.1569 81.5074 26.1845V26.2415C81.5074 29.1142 80.0181 31.1132 77.6228 32.2718L82.2094 38.9765H74.6963L70.9824 33.3402H69.5736V38.9765H62.9901V19.2519ZM72.4148 28.6346C73.9895 28.6346 74.9476 27.9319 74.9476 26.721V26.6641C74.9476 25.3963 73.9611 24.7742 72.4433 24.7742H69.5736V28.6346H72.4148Z" fill="#FFFFFF"/>
<path d="M83.1054 19.2519H89.6889V26.6308L95.2906 19.2519H102.946L96.078 27.8179L103.084 38.9765H95.2337L91.3775 32.7229L89.6889 34.779V38.9765H83.1054V19.2519Z" fill="#FFFFFF"/>
<path d="M100.949 29.1665V29.1095C100.949 23.3925 105.65 18.8246 111.726 18.8246C117.802 18.8246 122.45 23.3308 122.45 29.0526V29.1095C122.45 34.8265 117.75 39.3944 111.674 39.3944C105.598 39.3944 100.949 34.8883 100.949 29.1665ZM115.805 29.1665V29.1095C115.805 26.7734 114.202 24.6603 111.669 24.6603C109.136 24.6603 107.59 26.7449 107.59 29.0573V29.1143C107.59 31.4505 109.193 33.5682 111.726 33.5682C114.259 33.5682 115.805 31.4837 115.805 29.1713V29.1665Z" fill="#FFFFFF"/>
<path d="M122.953 30.1256V19.2519H129.65V30.0401C129.65 32.4903 130.916 33.5349 132.69 33.5349C134.464 33.5349 135.731 32.5757 135.731 30.1826V19.2519H142.428V29.9879C142.428 36.721 138.515 39.3706 132.633 39.3706C126.752 39.3706 122.953 36.664 122.953 30.1303V30.1256Z" fill="#FFFFFF"/>
<path d="M148.984 24.8312H143.188V19.2519H161.368V24.8312H155.572V38.9717H148.988V24.8312H148.984Z" fill="#FFFFFF"/>
</g>
<defs>
<filter id="filter0_d_11_100" x="0" y="0" width="358.2" height="62.2" filterUnits="userSpaceOnUse" color-interpolation-filters="sRGB">
<feFlood flood-opacity="0" result="BackgroundImageFix"/>
<feColorMatrix in="SourceAlpha" type="matrix" values="0 0 0 0 0 0 0 0 0 0 0 0 0 0 0 0 0 0 127 0" result="hardAlpha"/>
<feOffset dy="2"/>
<feGaussianBlur stdDeviation="5.55"/>
<feComposite in2="hardAlpha" operator="out"/>
<feColorMatrix type="matrix" values="0 0 0 0 0 0 0 0 0 0 0 0 0 0 0 0 0 0 1 0"/>
<feBlend mode="normal" in2="BackgroundImageFix" result="effect1_dropShadow_11_100"/>
<feBlend mode="normal" in="SourceGraphic" in2="effect1_dropShadow_11_100" result="shape"/>
</filter>
</defs>
</svg>

