<svg width="359" height="63" viewBox="0 0 359 63" fill="none" xmlns="http://www.w3.org/2000/svg">
<path d="M327.117 12.8704C330.404 12.8704 333.463 13.8533 336.015 15.5437L327.847 29.9738H334.986L332.04 35.1685H336.072L339.013 29.969H343.248C342.893 38.3926 335.484 45.3157 327.112 45.3157C326.064 45.3157 325.04 45.2111 324.048 45.0212L331.462 31.9254H319.642L317.213 35.159H325.044L320.088 43.7061C314.662 41.0803 310.91 35.5151 310.91 29.0907C310.91 25.5247 312.067 22.2246 314.026 19.5418H319.111L319.115 19.5513C319.115 19.4943 319.111 19.4468 319.111 19.3851C319.111 18.8818 319.111 16.8258 321.316 16.8258C323.223 16.8258 323.37 18.2788 323.37 18.8581C323.37 19.9359 322.635 20.6245 319.983 23.274C318.176 25.0831 313.627 29.9787 313.627 29.9787H325.4L327.364 26.5075H322.36L325.286 23.5255C327.368 21.3508 328.379 19.6557 328.379 17.8893C328.379 16.9872 328.122 15.9331 327.131 14.9359C326.069 13.8628 324.665 13.4544 323.432 13.2977C324.617 13.0223 325.851 12.8704 327.117 12.8704Z" fill="white"/>
<path d="M339.188 18.293C341.228 20.5627 342.608 23.369 343.116 26.5124H340.986L342.167 24.423H338.14L336.964 26.5124H334.54L339.188 18.293Z" fill="white"/>
<path fill-rule="evenodd" clip-rule="evenodd" d="M327.122 9.1001C338.154 9.1001 347.1 18.0554 347.1 29.1C347.1 40.1446 338.154 49.1001 327.122 49.1001C316.089 49.1001 307.144 40.1446 307.144 29.1C307.144 18.0554 316.089 9.10014 327.122 9.1001ZM327.122 11.2178C317.27 11.2179 309.259 19.2425 309.259 29.1C309.259 38.9575 317.275 46.9821 327.122 46.9822C336.968 46.9822 344.984 38.9575 344.984 29.1C344.984 19.2425 336.968 11.2178 327.122 11.2178Z" fill="white"/>
<path d="M177.846 19.1804H184.372L192.673 39.0427H185.525L184.482 36.3932H177.585L176.57 39.0427H169.536L177.836 19.1804H177.846ZM182.859 31.716L181.057 26.925L179.255 31.716H182.855H182.859Z" fill="white"/>
<path d="M192.37 19.323H198.531L205.537 28.0267V19.323H212.063V39.0428H206.21L198.891 29.945V39.0428H192.365V19.323H192.37Z" fill="white"/>
<path d="M219.045 32.058L211.617 19.323H218.988L222.365 25.8044L225.771 19.323H233.061L225.633 31.9725V39.0428H219.05V32.058H219.045Z" fill="white"/>
<path d="M235.394 24.8977H229.598V19.3184H247.779V24.8977H241.982V39.0383H235.399V24.8977H235.394Z" fill="white"/>
<path d="M249.32 19.323H255.904V39.0428H249.32V19.323Z" fill="white"/>
<path d="M257.65 19.323H264.518L268.739 26.2555L272.961 19.323H279.829V39.0428H273.269V29.266L268.739 36.2793H268.625L264.096 29.266V39.0428H257.65V19.323Z" fill="white"/>
<path d="M281.512 19.323H298.312V24.7313H287.982V26.7304H297.606V31.4929H287.982V33.6344H298.45V39.0428H281.507V19.323H281.512Z" fill="white"/>
<path d="M299.707 21.9253C299.707 19.9025 301.011 19.157 302.548 19.157C304.085 19.157 305.408 19.9025 305.408 21.9253C305.408 23.9481 304.104 24.6841 302.548 24.6841C300.992 24.6841 299.707 23.9386 299.707 21.9253ZM304.734 21.9253C304.734 20.3821 303.743 19.8075 302.567 19.8075C301.39 19.8075 300.385 20.3821 300.385 21.9253C300.385 23.4685 301.376 24.0336 302.567 24.0336C303.757 24.0336 304.734 23.459 304.734 21.9253ZM302.239 22.5236V23.5065H301.234V20.3299H302.908C303.781 20.3299 304.075 20.8189 304.075 21.441C304.075 21.7733 303.947 22.2007 303.591 22.3811L304.141 23.5065H302.956L302.6 22.5236H302.235H302.239ZM302.823 21.2225H302.239V21.6356H302.823C302.965 21.6261 302.994 21.5169 302.994 21.4315C302.994 21.3555 302.97 21.2273 302.823 21.2178V21.2225Z" fill="white"/>
<path d="M11.1 19.2519H17.9966L20.7808 28.7201L23.9587 19.1997H29.641L32.8189 28.7201L35.6032 19.2519H42.3859L35.9399 39.1142H30.2007L26.7382 29.3089L23.2757 39.1142H17.5365L11.1 19.2519Z" fill="white"/>
<path d="M40.8155 29.1666V29.1096C40.8155 23.3926 45.5159 18.8247 51.5919 18.8247C57.6679 18.8247 62.3162 23.3309 62.3162 29.0527V29.1096C62.3162 34.8266 57.6157 39.3945 51.5398 39.3945C45.4638 39.3945 40.8202 34.8884 40.8202 29.1666H40.8155ZM55.6711 29.1666V29.1096C55.6711 26.7735 54.0679 24.6604 51.535 24.6604C49.0022 24.6604 47.4559 26.745 47.4559 29.0574V29.1144C47.4559 31.4506 49.0591 33.5683 51.5919 33.5683C54.1248 33.5683 55.6711 31.4838 55.6711 29.1714V29.1666Z" fill="white"/>
<path d="M62.9901 19.252H72.6139C76.1049 19.252 78.3248 20.1257 79.705 21.5075C80.8861 22.6898 81.5074 24.157 81.5074 26.1846V26.2416C81.5074 29.1143 80.0181 31.1133 77.6228 32.2719L82.2093 38.9766H74.6962L70.9823 33.3403H69.5736V38.9766H62.9901V19.252ZM72.4148 28.6347C73.9895 28.6347 74.9476 27.932 74.9476 26.7211V26.6642C74.9476 25.3964 73.961 24.7743 72.4432 24.7743H69.5736V28.6347H72.4148Z" fill="white"/>
<path d="M83.1053 19.252H89.6889V26.6309L95.2906 19.252H102.946L96.0779 27.818L103.084 38.9766H95.2337L91.3774 32.723L89.6889 34.7791V38.9766H83.1053V19.252Z" fill="white"/>
<path d="M100.949 29.1666V29.1096C100.949 23.3926 105.65 18.8247 111.726 18.8247C117.802 18.8247 122.45 23.3309 122.45 29.0527V29.1096C122.45 34.8266 117.75 39.3945 111.674 39.3945C105.598 39.3945 100.949 34.8884 100.949 29.1666ZM115.805 29.1666V29.1096C115.805 26.7735 114.202 24.6604 111.669 24.6604C109.136 24.6604 107.59 26.745 107.59 29.0574V29.1144C107.59 31.4506 109.193 33.5683 111.726 33.5683C114.259 33.5683 115.805 31.4838 115.805 29.1714V29.1666Z" fill="white"/>
<path d="M122.953 30.1257V19.252H129.65V30.0402C129.65 32.4904 130.916 33.535 132.69 33.535C134.464 33.535 135.731 32.5758 135.731 30.1827V19.252H142.428V29.988C142.428 36.7211 138.515 39.3707 132.633 39.3707C126.752 39.3707 122.953 36.6641 122.953 30.1304V30.1257Z" fill="white"/>
<path d="M148.984 24.8313H143.188V19.252H161.368V24.8313H155.572V38.9718H148.988V24.8313H148.984Z" fill="white"/>
</svg>
